<mxfile host="Electron" agent="Mozilla/5.0 (Windows NT 10.0; Win64; x64) AppleWebKit/537.36 (KHTML, like Gecko) draw.io/27.0.9 Chrome/134.0.6998.205 Electron/35.4.0 Safari/537.36" version="27.0.9">
  <diagram name="Page-1" id="bKZZRKnRC0Edp80HynlG">
    <mxGraphModel dx="979" dy="2941" grid="0" gridSize="10" guides="1" tooltips="1" connect="1" arrows="1" fold="1" page="1" pageScale="1" pageWidth="850" pageHeight="1100" math="0" shadow="0">
      <root>
        <mxCell id="0" />
        <mxCell id="1" parent="0" />
        <mxCell id="Tk1LQlAnh9t9eojkvbLp-1" value="galaxy" style="shape=table;startSize=30;container=1;collapsible=1;childLayout=tableLayout;fixedRows=1;rowLines=0;fontStyle=1;align=center;resizeLast=1;html=1;" parent="1" vertex="1">
          <mxGeometry x="118" y="-1066" width="239" height="390" as="geometry" />
        </mxCell>
        <mxCell id="Tk1LQlAnh9t9eojkvbLp-2" value="" style="shape=tableRow;horizontal=0;startSize=0;swimlaneHead=0;swimlaneBody=0;fillColor=none;collapsible=0;dropTarget=0;points=[[0,0.5],[1,0.5]];portConstraint=eastwest;top=0;left=0;right=0;bottom=1;" parent="Tk1LQlAnh9t9eojkvbLp-1" vertex="1">
          <mxGeometry y="30" width="239" height="30" as="geometry" />
        </mxCell>
        <mxCell id="Tk1LQlAnh9t9eojkvbLp-3" value="PK" style="shape=partialRectangle;connectable=0;fillColor=none;top=0;left=0;bottom=0;right=0;fontStyle=1;overflow=hidden;whiteSpace=wrap;html=1;" parent="Tk1LQlAnh9t9eojkvbLp-2" vertex="1">
          <mxGeometry width="30" height="30" as="geometry">
            <mxRectangle width="30" height="30" as="alternateBounds" />
          </mxGeometry>
        </mxCell>
        <mxCell id="Tk1LQlAnh9t9eojkvbLp-4" value="galaxy_id int SERIAL&amp;nbsp;" style="shape=partialRectangle;connectable=0;fillColor=none;top=0;left=0;bottom=0;right=0;align=left;spacingLeft=6;fontStyle=5;overflow=hidden;whiteSpace=wrap;html=1;" parent="Tk1LQlAnh9t9eojkvbLp-2" vertex="1">
          <mxGeometry x="30" width="209" height="30" as="geometry">
            <mxRectangle width="209" height="30" as="alternateBounds" />
          </mxGeometry>
        </mxCell>
        <mxCell id="Tk1LQlAnh9t9eojkvbLp-5" value="" style="shape=tableRow;horizontal=0;startSize=0;swimlaneHead=0;swimlaneBody=0;fillColor=none;collapsible=0;dropTarget=0;points=[[0,0.5],[1,0.5]];portConstraint=eastwest;top=0;left=0;right=0;bottom=0;" parent="Tk1LQlAnh9t9eojkvbLp-1" vertex="1">
          <mxGeometry y="60" width="239" height="30" as="geometry" />
        </mxCell>
        <mxCell id="Tk1LQlAnh9t9eojkvbLp-6" value="" style="shape=partialRectangle;connectable=0;fillColor=none;top=0;left=0;bottom=0;right=0;editable=1;overflow=hidden;whiteSpace=wrap;html=1;" parent="Tk1LQlAnh9t9eojkvbLp-5" vertex="1">
          <mxGeometry width="30" height="30" as="geometry">
            <mxRectangle width="30" height="30" as="alternateBounds" />
          </mxGeometry>
        </mxCell>
        <mxCell id="Tk1LQlAnh9t9eojkvbLp-7" value="name VARCHAR(100)" style="shape=partialRectangle;connectable=0;fillColor=none;top=0;left=0;bottom=0;right=0;align=left;spacingLeft=6;overflow=hidden;whiteSpace=wrap;html=1;" parent="Tk1LQlAnh9t9eojkvbLp-5" vertex="1">
          <mxGeometry x="30" width="209" height="30" as="geometry">
            <mxRectangle width="209" height="30" as="alternateBounds" />
          </mxGeometry>
        </mxCell>
        <mxCell id="Tk1LQlAnh9t9eojkvbLp-8" value="" style="shape=tableRow;horizontal=0;startSize=0;swimlaneHead=0;swimlaneBody=0;fillColor=none;collapsible=0;dropTarget=0;points=[[0,0.5],[1,0.5]];portConstraint=eastwest;top=0;left=0;right=0;bottom=0;" parent="Tk1LQlAnh9t9eojkvbLp-1" vertex="1">
          <mxGeometry y="90" width="239" height="30" as="geometry" />
        </mxCell>
        <mxCell id="Tk1LQlAnh9t9eojkvbLp-9" value="" style="shape=partialRectangle;connectable=0;fillColor=none;top=0;left=0;bottom=0;right=0;editable=1;overflow=hidden;whiteSpace=wrap;html=1;" parent="Tk1LQlAnh9t9eojkvbLp-8" vertex="1">
          <mxGeometry width="30" height="30" as="geometry">
            <mxRectangle width="30" height="30" as="alternateBounds" />
          </mxGeometry>
        </mxCell>
        <mxCell id="Tk1LQlAnh9t9eojkvbLp-10" value="description String" style="shape=partialRectangle;connectable=0;fillColor=none;top=0;left=0;bottom=0;right=0;align=left;spacingLeft=6;overflow=hidden;whiteSpace=wrap;html=1;" parent="Tk1LQlAnh9t9eojkvbLp-8" vertex="1">
          <mxGeometry x="30" width="209" height="30" as="geometry">
            <mxRectangle width="209" height="30" as="alternateBounds" />
          </mxGeometry>
        </mxCell>
        <mxCell id="Tk1LQlAnh9t9eojkvbLp-11" value="" style="shape=tableRow;horizontal=0;startSize=0;swimlaneHead=0;swimlaneBody=0;fillColor=none;collapsible=0;dropTarget=0;points=[[0,0.5],[1,0.5]];portConstraint=eastwest;top=0;left=0;right=0;bottom=0;" parent="Tk1LQlAnh9t9eojkvbLp-1" vertex="1">
          <mxGeometry y="120" width="239" height="30" as="geometry" />
        </mxCell>
        <mxCell id="Tk1LQlAnh9t9eojkvbLp-12" value="" style="shape=partialRectangle;connectable=0;fillColor=none;top=0;left=0;bottom=0;right=0;editable=1;overflow=hidden;whiteSpace=wrap;html=1;" parent="Tk1LQlAnh9t9eojkvbLp-11" vertex="1">
          <mxGeometry width="30" height="30" as="geometry">
            <mxRectangle width="30" height="30" as="alternateBounds" />
          </mxGeometry>
        </mxCell>
        <mxCell id="Tk1LQlAnh9t9eojkvbLp-13" value="&lt;span style=&quot;text-wrap-mode: nowrap;&quot;&gt;galaxy_types String&lt;/span&gt;" style="shape=partialRectangle;connectable=0;fillColor=none;top=0;left=0;bottom=0;right=0;align=left;spacingLeft=6;overflow=hidden;whiteSpace=wrap;html=1;" parent="Tk1LQlAnh9t9eojkvbLp-11" vertex="1">
          <mxGeometry x="30" width="209" height="30" as="geometry">
            <mxRectangle width="209" height="30" as="alternateBounds" />
          </mxGeometry>
        </mxCell>
        <mxCell id="MN-LZ6k577d6LrovJlPE-86" value="" style="shape=tableRow;horizontal=0;startSize=0;swimlaneHead=0;swimlaneBody=0;fillColor=none;collapsible=0;dropTarget=0;points=[[0,0.5],[1,0.5]];portConstraint=eastwest;top=0;left=0;right=0;bottom=0;" vertex="1" parent="Tk1LQlAnh9t9eojkvbLp-1">
          <mxGeometry y="150" width="239" height="30" as="geometry" />
        </mxCell>
        <mxCell id="MN-LZ6k577d6LrovJlPE-87" value="" style="shape=partialRectangle;connectable=0;fillColor=none;top=0;left=0;bottom=0;right=0;editable=1;overflow=hidden;whiteSpace=wrap;html=1;" vertex="1" parent="MN-LZ6k577d6LrovJlPE-86">
          <mxGeometry width="30" height="30" as="geometry">
            <mxRectangle width="30" height="30" as="alternateBounds" />
          </mxGeometry>
        </mxCell>
        <mxCell id="MN-LZ6k577d6LrovJlPE-88" value="&lt;span style=&quot;text-wrap-mode: nowrap;&quot;&gt;age_in_millions_of_years INT&lt;/span&gt;" style="shape=partialRectangle;connectable=0;fillColor=none;top=0;left=0;bottom=0;right=0;align=left;spacingLeft=6;overflow=hidden;whiteSpace=wrap;html=1;" vertex="1" parent="MN-LZ6k577d6LrovJlPE-86">
          <mxGeometry x="30" width="209" height="30" as="geometry">
            <mxRectangle width="209" height="30" as="alternateBounds" />
          </mxGeometry>
        </mxCell>
        <mxCell id="MN-LZ6k577d6LrovJlPE-89" value="" style="shape=tableRow;horizontal=0;startSize=0;swimlaneHead=0;swimlaneBody=0;fillColor=none;collapsible=0;dropTarget=0;points=[[0,0.5],[1,0.5]];portConstraint=eastwest;top=0;left=0;right=0;bottom=0;" vertex="1" parent="Tk1LQlAnh9t9eojkvbLp-1">
          <mxGeometry y="180" width="239" height="30" as="geometry" />
        </mxCell>
        <mxCell id="MN-LZ6k577d6LrovJlPE-90" value="" style="shape=partialRectangle;connectable=0;fillColor=none;top=0;left=0;bottom=0;right=0;editable=1;overflow=hidden;whiteSpace=wrap;html=1;" vertex="1" parent="MN-LZ6k577d6LrovJlPE-89">
          <mxGeometry width="30" height="30" as="geometry">
            <mxRectangle width="30" height="30" as="alternateBounds" />
          </mxGeometry>
        </mxCell>
        <mxCell id="MN-LZ6k577d6LrovJlPE-91" value="&lt;span style=&quot;text-wrap-mode: nowrap;&quot;&gt;distance_from_earth&amp;nbsp;&lt;/span&gt;&lt;span style=&quot;text-wrap-mode: nowrap;&quot;&gt;INT&lt;/span&gt;" style="shape=partialRectangle;connectable=0;fillColor=none;top=0;left=0;bottom=0;right=0;align=left;spacingLeft=6;overflow=hidden;whiteSpace=wrap;html=1;" vertex="1" parent="MN-LZ6k577d6LrovJlPE-89">
          <mxGeometry x="30" width="209" height="30" as="geometry">
            <mxRectangle width="209" height="30" as="alternateBounds" />
          </mxGeometry>
        </mxCell>
        <mxCell id="MN-LZ6k577d6LrovJlPE-92" value="" style="shape=tableRow;horizontal=0;startSize=0;swimlaneHead=0;swimlaneBody=0;fillColor=none;collapsible=0;dropTarget=0;points=[[0,0.5],[1,0.5]];portConstraint=eastwest;top=0;left=0;right=0;bottom=0;" vertex="1" parent="Tk1LQlAnh9t9eojkvbLp-1">
          <mxGeometry y="210" width="239" height="30" as="geometry" />
        </mxCell>
        <mxCell id="MN-LZ6k577d6LrovJlPE-93" value="" style="shape=partialRectangle;connectable=0;fillColor=none;top=0;left=0;bottom=0;right=0;editable=1;overflow=hidden;whiteSpace=wrap;html=1;" vertex="1" parent="MN-LZ6k577d6LrovJlPE-92">
          <mxGeometry width="30" height="30" as="geometry">
            <mxRectangle width="30" height="30" as="alternateBounds" />
          </mxGeometry>
        </mxCell>
        <mxCell id="MN-LZ6k577d6LrovJlPE-94" value="&lt;span style=&quot;text-wrap-mode: nowrap;&quot;&gt;approx_area NUMERIC&lt;/span&gt;" style="shape=partialRectangle;connectable=0;fillColor=none;top=0;left=0;bottom=0;right=0;align=left;spacingLeft=6;overflow=hidden;whiteSpace=wrap;html=1;" vertex="1" parent="MN-LZ6k577d6LrovJlPE-92">
          <mxGeometry x="30" width="209" height="30" as="geometry">
            <mxRectangle width="209" height="30" as="alternateBounds" />
          </mxGeometry>
        </mxCell>
        <mxCell id="MN-LZ6k577d6LrovJlPE-154" value="" style="shape=tableRow;horizontal=0;startSize=0;swimlaneHead=0;swimlaneBody=0;fillColor=none;collapsible=0;dropTarget=0;points=[[0,0.5],[1,0.5]];portConstraint=eastwest;top=0;left=0;right=0;bottom=0;" vertex="1" parent="Tk1LQlAnh9t9eojkvbLp-1">
          <mxGeometry y="240" width="239" height="30" as="geometry" />
        </mxCell>
        <mxCell id="MN-LZ6k577d6LrovJlPE-155" value="" style="shape=partialRectangle;connectable=0;fillColor=none;top=0;left=0;bottom=0;right=0;editable=1;overflow=hidden;whiteSpace=wrap;html=1;" vertex="1" parent="MN-LZ6k577d6LrovJlPE-154">
          <mxGeometry width="30" height="30" as="geometry">
            <mxRectangle width="30" height="30" as="alternateBounds" />
          </mxGeometry>
        </mxCell>
        <mxCell id="MN-LZ6k577d6LrovJlPE-156" value="&lt;span style=&quot;text-wrap-mode: nowrap;&quot;&gt;has_black_hole BOOLEAN&lt;/span&gt;" style="shape=partialRectangle;connectable=0;fillColor=none;top=0;left=0;bottom=0;right=0;align=left;spacingLeft=6;overflow=hidden;whiteSpace=wrap;html=1;" vertex="1" parent="MN-LZ6k577d6LrovJlPE-154">
          <mxGeometry x="30" width="209" height="30" as="geometry">
            <mxRectangle width="209" height="30" as="alternateBounds" />
          </mxGeometry>
        </mxCell>
        <mxCell id="MN-LZ6k577d6LrovJlPE-157" value="" style="shape=tableRow;horizontal=0;startSize=0;swimlaneHead=0;swimlaneBody=0;fillColor=none;collapsible=0;dropTarget=0;points=[[0,0.5],[1,0.5]];portConstraint=eastwest;top=0;left=0;right=0;bottom=0;" vertex="1" parent="Tk1LQlAnh9t9eojkvbLp-1">
          <mxGeometry y="270" width="239" height="30" as="geometry" />
        </mxCell>
        <mxCell id="MN-LZ6k577d6LrovJlPE-158" value="" style="shape=partialRectangle;connectable=0;fillColor=none;top=0;left=0;bottom=0;right=0;editable=1;overflow=hidden;whiteSpace=wrap;html=1;" vertex="1" parent="MN-LZ6k577d6LrovJlPE-157">
          <mxGeometry width="30" height="30" as="geometry">
            <mxRectangle width="30" height="30" as="alternateBounds" />
          </mxGeometry>
        </mxCell>
        <mxCell id="MN-LZ6k577d6LrovJlPE-159" value="&lt;span style=&quot;text-wrap-mode: nowrap;&quot;&gt;mass NUMERIC&lt;/span&gt;" style="shape=partialRectangle;connectable=0;fillColor=none;top=0;left=0;bottom=0;right=0;align=left;spacingLeft=6;overflow=hidden;whiteSpace=wrap;html=1;" vertex="1" parent="MN-LZ6k577d6LrovJlPE-157">
          <mxGeometry x="30" width="209" height="30" as="geometry">
            <mxRectangle width="209" height="30" as="alternateBounds" />
          </mxGeometry>
        </mxCell>
        <mxCell id="MN-LZ6k577d6LrovJlPE-160" value="" style="shape=tableRow;horizontal=0;startSize=0;swimlaneHead=0;swimlaneBody=0;fillColor=none;collapsible=0;dropTarget=0;points=[[0,0.5],[1,0.5]];portConstraint=eastwest;top=0;left=0;right=0;bottom=0;" vertex="1" parent="Tk1LQlAnh9t9eojkvbLp-1">
          <mxGeometry y="300" width="239" height="30" as="geometry" />
        </mxCell>
        <mxCell id="MN-LZ6k577d6LrovJlPE-161" value="" style="shape=partialRectangle;connectable=0;fillColor=none;top=0;left=0;bottom=0;right=0;editable=1;overflow=hidden;whiteSpace=wrap;html=1;" vertex="1" parent="MN-LZ6k577d6LrovJlPE-160">
          <mxGeometry width="30" height="30" as="geometry">
            <mxRectangle width="30" height="30" as="alternateBounds" />
          </mxGeometry>
        </mxCell>
        <mxCell id="MN-LZ6k577d6LrovJlPE-162" value="&lt;span style=&quot;text-wrap-mode: nowrap;&quot;&gt;star_formation_rate NUMERIC&lt;/span&gt;" style="shape=partialRectangle;connectable=0;fillColor=none;top=0;left=0;bottom=0;right=0;align=left;spacingLeft=6;overflow=hidden;whiteSpace=wrap;html=1;" vertex="1" parent="MN-LZ6k577d6LrovJlPE-160">
          <mxGeometry x="30" width="209" height="30" as="geometry">
            <mxRectangle width="209" height="30" as="alternateBounds" />
          </mxGeometry>
        </mxCell>
        <mxCell id="MN-LZ6k577d6LrovJlPE-163" value="" style="shape=tableRow;horizontal=0;startSize=0;swimlaneHead=0;swimlaneBody=0;fillColor=none;collapsible=0;dropTarget=0;points=[[0,0.5],[1,0.5]];portConstraint=eastwest;top=0;left=0;right=0;bottom=0;" vertex="1" parent="Tk1LQlAnh9t9eojkvbLp-1">
          <mxGeometry y="330" width="239" height="30" as="geometry" />
        </mxCell>
        <mxCell id="MN-LZ6k577d6LrovJlPE-164" value="" style="shape=partialRectangle;connectable=0;fillColor=none;top=0;left=0;bottom=0;right=0;editable=1;overflow=hidden;whiteSpace=wrap;html=1;" vertex="1" parent="MN-LZ6k577d6LrovJlPE-163">
          <mxGeometry width="30" height="30" as="geometry">
            <mxRectangle width="30" height="30" as="alternateBounds" />
          </mxGeometry>
        </mxCell>
        <mxCell id="MN-LZ6k577d6LrovJlPE-165" value="&lt;span style=&quot;text-wrap-mode: nowrap;&quot;&gt;red_shift NUMERIC&lt;/span&gt;" style="shape=partialRectangle;connectable=0;fillColor=none;top=0;left=0;bottom=0;right=0;align=left;spacingLeft=6;overflow=hidden;whiteSpace=wrap;html=1;" vertex="1" parent="MN-LZ6k577d6LrovJlPE-163">
          <mxGeometry x="30" width="209" height="30" as="geometry">
            <mxRectangle width="209" height="30" as="alternateBounds" />
          </mxGeometry>
        </mxCell>
        <mxCell id="MN-LZ6k577d6LrovJlPE-166" value="" style="shape=tableRow;horizontal=0;startSize=0;swimlaneHead=0;swimlaneBody=0;fillColor=none;collapsible=0;dropTarget=0;points=[[0,0.5],[1,0.5]];portConstraint=eastwest;top=0;left=0;right=0;bottom=0;" vertex="1" parent="Tk1LQlAnh9t9eojkvbLp-1">
          <mxGeometry y="360" width="239" height="30" as="geometry" />
        </mxCell>
        <mxCell id="MN-LZ6k577d6LrovJlPE-167" value="" style="shape=partialRectangle;connectable=0;fillColor=none;top=0;left=0;bottom=0;right=0;editable=1;overflow=hidden;whiteSpace=wrap;html=1;" vertex="1" parent="MN-LZ6k577d6LrovJlPE-166">
          <mxGeometry width="30" height="30" as="geometry">
            <mxRectangle width="30" height="30" as="alternateBounds" />
          </mxGeometry>
        </mxCell>
        <mxCell id="MN-LZ6k577d6LrovJlPE-168" value="&lt;span style=&quot;text-wrap-mode: nowrap;&quot;&gt;apparent_magnitude INT&lt;/span&gt;" style="shape=partialRectangle;connectable=0;fillColor=none;top=0;left=0;bottom=0;right=0;align=left;spacingLeft=6;overflow=hidden;whiteSpace=wrap;html=1;" vertex="1" parent="MN-LZ6k577d6LrovJlPE-166">
          <mxGeometry x="30" width="209" height="30" as="geometry">
            <mxRectangle width="209" height="30" as="alternateBounds" />
          </mxGeometry>
        </mxCell>
        <mxCell id="Tk1LQlAnh9t9eojkvbLp-55" value="star" style="shape=table;startSize=30;container=1;collapsible=1;childLayout=tableLayout;fixedRows=1;rowLines=0;fontStyle=1;align=center;resizeLast=1;html=1;" parent="1" vertex="1">
          <mxGeometry x="489" y="-1087" width="229" height="300" as="geometry" />
        </mxCell>
        <mxCell id="Tk1LQlAnh9t9eojkvbLp-56" value="" style="shape=tableRow;horizontal=0;startSize=0;swimlaneHead=0;swimlaneBody=0;fillColor=none;collapsible=0;dropTarget=0;points=[[0,0.5],[1,0.5]];portConstraint=eastwest;top=0;left=0;right=0;bottom=1;" parent="Tk1LQlAnh9t9eojkvbLp-55" vertex="1">
          <mxGeometry y="30" width="229" height="30" as="geometry" />
        </mxCell>
        <mxCell id="Tk1LQlAnh9t9eojkvbLp-57" value="PK" style="shape=partialRectangle;connectable=0;fillColor=none;top=0;left=0;bottom=0;right=0;fontStyle=1;overflow=hidden;whiteSpace=wrap;html=1;" parent="Tk1LQlAnh9t9eojkvbLp-56" vertex="1">
          <mxGeometry width="30" height="30" as="geometry">
            <mxRectangle width="30" height="30" as="alternateBounds" />
          </mxGeometry>
        </mxCell>
        <mxCell id="Tk1LQlAnh9t9eojkvbLp-58" value="star_id int SERIAL&amp;nbsp;" style="shape=partialRectangle;connectable=0;fillColor=none;top=0;left=0;bottom=0;right=0;align=left;spacingLeft=6;fontStyle=5;overflow=hidden;whiteSpace=wrap;html=1;" parent="Tk1LQlAnh9t9eojkvbLp-56" vertex="1">
          <mxGeometry x="30" width="199" height="30" as="geometry">
            <mxRectangle width="199" height="30" as="alternateBounds" />
          </mxGeometry>
        </mxCell>
        <mxCell id="Tk1LQlAnh9t9eojkvbLp-59" value="" style="shape=tableRow;horizontal=0;startSize=0;swimlaneHead=0;swimlaneBody=0;fillColor=none;collapsible=0;dropTarget=0;points=[[0,0.5],[1,0.5]];portConstraint=eastwest;top=0;left=0;right=0;bottom=0;" parent="Tk1LQlAnh9t9eojkvbLp-55" vertex="1">
          <mxGeometry y="60" width="229" height="30" as="geometry" />
        </mxCell>
        <mxCell id="Tk1LQlAnh9t9eojkvbLp-60" value="" style="shape=partialRectangle;connectable=0;fillColor=none;top=0;left=0;bottom=0;right=0;editable=1;overflow=hidden;whiteSpace=wrap;html=1;" parent="Tk1LQlAnh9t9eojkvbLp-59" vertex="1">
          <mxGeometry width="30" height="30" as="geometry">
            <mxRectangle width="30" height="30" as="alternateBounds" />
          </mxGeometry>
        </mxCell>
        <mxCell id="Tk1LQlAnh9t9eojkvbLp-61" value="name VARCHAR(100)" style="shape=partialRectangle;connectable=0;fillColor=none;top=0;left=0;bottom=0;right=0;align=left;spacingLeft=6;overflow=hidden;whiteSpace=wrap;html=1;" parent="Tk1LQlAnh9t9eojkvbLp-59" vertex="1">
          <mxGeometry x="30" width="199" height="30" as="geometry">
            <mxRectangle width="199" height="30" as="alternateBounds" />
          </mxGeometry>
        </mxCell>
        <mxCell id="Tk1LQlAnh9t9eojkvbLp-62" value="" style="shape=tableRow;horizontal=0;startSize=0;swimlaneHead=0;swimlaneBody=0;fillColor=none;collapsible=0;dropTarget=0;points=[[0,0.5],[1,0.5]];portConstraint=eastwest;top=0;left=0;right=0;bottom=0;" parent="Tk1LQlAnh9t9eojkvbLp-55" vertex="1">
          <mxGeometry y="90" width="229" height="30" as="geometry" />
        </mxCell>
        <mxCell id="Tk1LQlAnh9t9eojkvbLp-63" value="" style="shape=partialRectangle;connectable=0;fillColor=none;top=0;left=0;bottom=0;right=0;editable=1;overflow=hidden;whiteSpace=wrap;html=1;" parent="Tk1LQlAnh9t9eojkvbLp-62" vertex="1">
          <mxGeometry width="30" height="30" as="geometry">
            <mxRectangle width="30" height="30" as="alternateBounds" />
          </mxGeometry>
        </mxCell>
        <mxCell id="Tk1LQlAnh9t9eojkvbLp-64" value="description String" style="shape=partialRectangle;connectable=0;fillColor=none;top=0;left=0;bottom=0;right=0;align=left;spacingLeft=6;overflow=hidden;whiteSpace=wrap;html=1;" parent="Tk1LQlAnh9t9eojkvbLp-62" vertex="1">
          <mxGeometry x="30" width="199" height="30" as="geometry">
            <mxRectangle width="199" height="30" as="alternateBounds" />
          </mxGeometry>
        </mxCell>
        <mxCell id="Tk1LQlAnh9t9eojkvbLp-65" value="" style="shape=tableRow;horizontal=0;startSize=0;swimlaneHead=0;swimlaneBody=0;fillColor=none;collapsible=0;dropTarget=0;points=[[0,0.5],[1,0.5]];portConstraint=eastwest;top=0;left=0;right=0;bottom=0;" parent="Tk1LQlAnh9t9eojkvbLp-55" vertex="1">
          <mxGeometry y="120" width="229" height="30" as="geometry" />
        </mxCell>
        <mxCell id="Tk1LQlAnh9t9eojkvbLp-66" value="" style="shape=partialRectangle;connectable=0;fillColor=none;top=0;left=0;bottom=0;right=0;editable=1;overflow=hidden;whiteSpace=wrap;html=1;" parent="Tk1LQlAnh9t9eojkvbLp-65" vertex="1">
          <mxGeometry width="30" height="30" as="geometry">
            <mxRectangle width="30" height="30" as="alternateBounds" />
          </mxGeometry>
        </mxCell>
        <mxCell id="Tk1LQlAnh9t9eojkvbLp-67" value="star_type String" style="shape=partialRectangle;connectable=0;fillColor=none;top=0;left=0;bottom=0;right=0;align=left;spacingLeft=6;overflow=hidden;whiteSpace=wrap;html=1;" parent="Tk1LQlAnh9t9eojkvbLp-65" vertex="1">
          <mxGeometry x="30" width="199" height="30" as="geometry">
            <mxRectangle width="199" height="30" as="alternateBounds" />
          </mxGeometry>
        </mxCell>
        <mxCell id="MN-LZ6k577d6LrovJlPE-95" value="" style="shape=tableRow;horizontal=0;startSize=0;swimlaneHead=0;swimlaneBody=0;fillColor=none;collapsible=0;dropTarget=0;points=[[0,0.5],[1,0.5]];portConstraint=eastwest;top=0;left=0;right=0;bottom=0;" vertex="1" parent="Tk1LQlAnh9t9eojkvbLp-55">
          <mxGeometry y="150" width="229" height="30" as="geometry" />
        </mxCell>
        <mxCell id="MN-LZ6k577d6LrovJlPE-96" value="" style="shape=partialRectangle;connectable=0;fillColor=none;top=0;left=0;bottom=0;right=0;editable=1;overflow=hidden;whiteSpace=wrap;html=1;" vertex="1" parent="MN-LZ6k577d6LrovJlPE-95">
          <mxGeometry width="30" height="30" as="geometry">
            <mxRectangle width="30" height="30" as="alternateBounds" />
          </mxGeometry>
        </mxCell>
        <mxCell id="MN-LZ6k577d6LrovJlPE-97" value="&lt;span style=&quot;text-wrap-mode: nowrap;&quot;&gt;age_in_millions_of_years INT&lt;/span&gt;" style="shape=partialRectangle;connectable=0;fillColor=none;top=0;left=0;bottom=0;right=0;align=left;spacingLeft=6;overflow=hidden;whiteSpace=wrap;html=1;" vertex="1" parent="MN-LZ6k577d6LrovJlPE-95">
          <mxGeometry x="30" width="199" height="30" as="geometry">
            <mxRectangle width="199" height="30" as="alternateBounds" />
          </mxGeometry>
        </mxCell>
        <mxCell id="MN-LZ6k577d6LrovJlPE-98" value="" style="shape=tableRow;horizontal=0;startSize=0;swimlaneHead=0;swimlaneBody=0;fillColor=none;collapsible=0;dropTarget=0;points=[[0,0.5],[1,0.5]];portConstraint=eastwest;top=0;left=0;right=0;bottom=0;" vertex="1" parent="Tk1LQlAnh9t9eojkvbLp-55">
          <mxGeometry y="180" width="229" height="30" as="geometry" />
        </mxCell>
        <mxCell id="MN-LZ6k577d6LrovJlPE-99" value="" style="shape=partialRectangle;connectable=0;fillColor=none;top=0;left=0;bottom=0;right=0;editable=1;overflow=hidden;whiteSpace=wrap;html=1;" vertex="1" parent="MN-LZ6k577d6LrovJlPE-98">
          <mxGeometry width="30" height="30" as="geometry">
            <mxRectangle width="30" height="30" as="alternateBounds" />
          </mxGeometry>
        </mxCell>
        <mxCell id="MN-LZ6k577d6LrovJlPE-100" value="&lt;span style=&quot;text-wrap-mode: nowrap;&quot;&gt;distance_from_earth&amp;nbsp;&lt;/span&gt;&lt;span style=&quot;text-wrap-mode: nowrap;&quot;&gt;INT&lt;/span&gt;" style="shape=partialRectangle;connectable=0;fillColor=none;top=0;left=0;bottom=0;right=0;align=left;spacingLeft=6;overflow=hidden;whiteSpace=wrap;html=1;" vertex="1" parent="MN-LZ6k577d6LrovJlPE-98">
          <mxGeometry x="30" width="199" height="30" as="geometry">
            <mxRectangle width="199" height="30" as="alternateBounds" />
          </mxGeometry>
        </mxCell>
        <mxCell id="MN-LZ6k577d6LrovJlPE-101" value="" style="shape=tableRow;horizontal=0;startSize=0;swimlaneHead=0;swimlaneBody=0;fillColor=none;collapsible=0;dropTarget=0;points=[[0,0.5],[1,0.5]];portConstraint=eastwest;top=0;left=0;right=0;bottom=0;" vertex="1" parent="Tk1LQlAnh9t9eojkvbLp-55">
          <mxGeometry y="210" width="229" height="30" as="geometry" />
        </mxCell>
        <mxCell id="MN-LZ6k577d6LrovJlPE-102" value="" style="shape=partialRectangle;connectable=0;fillColor=none;top=0;left=0;bottom=0;right=0;editable=1;overflow=hidden;whiteSpace=wrap;html=1;" vertex="1" parent="MN-LZ6k577d6LrovJlPE-101">
          <mxGeometry width="30" height="30" as="geometry">
            <mxRectangle width="30" height="30" as="alternateBounds" />
          </mxGeometry>
        </mxCell>
        <mxCell id="MN-LZ6k577d6LrovJlPE-103" value="&lt;span style=&quot;text-wrap-mode: nowrap;&quot;&gt;approx_area NUMERIC&lt;/span&gt;" style="shape=partialRectangle;connectable=0;fillColor=none;top=0;left=0;bottom=0;right=0;align=left;spacingLeft=6;overflow=hidden;whiteSpace=wrap;html=1;" vertex="1" parent="MN-LZ6k577d6LrovJlPE-101">
          <mxGeometry x="30" width="199" height="30" as="geometry">
            <mxRectangle width="199" height="30" as="alternateBounds" />
          </mxGeometry>
        </mxCell>
        <mxCell id="MN-LZ6k577d6LrovJlPE-104" value="" style="shape=tableRow;horizontal=0;startSize=0;swimlaneHead=0;swimlaneBody=0;fillColor=none;collapsible=0;dropTarget=0;points=[[0,0.5],[1,0.5]];portConstraint=eastwest;top=0;left=0;right=0;bottom=0;" vertex="1" parent="Tk1LQlAnh9t9eojkvbLp-55">
          <mxGeometry y="240" width="229" height="30" as="geometry" />
        </mxCell>
        <mxCell id="MN-LZ6k577d6LrovJlPE-105" value="" style="shape=partialRectangle;connectable=0;fillColor=none;top=0;left=0;bottom=0;right=0;editable=1;overflow=hidden;whiteSpace=wrap;html=1;" vertex="1" parent="MN-LZ6k577d6LrovJlPE-104">
          <mxGeometry width="30" height="30" as="geometry">
            <mxRectangle width="30" height="30" as="alternateBounds" />
          </mxGeometry>
        </mxCell>
        <mxCell id="MN-LZ6k577d6LrovJlPE-106" value="&lt;span style=&quot;text-wrap-mode: nowrap;&quot;&gt;is_spherical BOOLEAN&lt;/span&gt;" style="shape=partialRectangle;connectable=0;fillColor=none;top=0;left=0;bottom=0;right=0;align=left;spacingLeft=6;overflow=hidden;whiteSpace=wrap;html=1;" vertex="1" parent="MN-LZ6k577d6LrovJlPE-104">
          <mxGeometry x="30" width="199" height="30" as="geometry">
            <mxRectangle width="199" height="30" as="alternateBounds" />
          </mxGeometry>
        </mxCell>
        <mxCell id="MN-LZ6k577d6LrovJlPE-113" value="" style="shape=tableRow;horizontal=0;startSize=0;swimlaneHead=0;swimlaneBody=0;fillColor=none;collapsible=0;dropTarget=0;points=[[0,0.5],[1,0.5]];portConstraint=eastwest;top=0;left=0;right=0;bottom=0;" vertex="1" parent="Tk1LQlAnh9t9eojkvbLp-55">
          <mxGeometry y="270" width="229" height="30" as="geometry" />
        </mxCell>
        <mxCell id="MN-LZ6k577d6LrovJlPE-114" value="&lt;b&gt;FK&lt;/b&gt;" style="shape=partialRectangle;connectable=0;fillColor=none;top=0;left=0;bottom=0;right=0;editable=1;overflow=hidden;whiteSpace=wrap;html=1;" vertex="1" parent="MN-LZ6k577d6LrovJlPE-113">
          <mxGeometry width="30" height="30" as="geometry">
            <mxRectangle width="30" height="30" as="alternateBounds" />
          </mxGeometry>
        </mxCell>
        <mxCell id="MN-LZ6k577d6LrovJlPE-115" value="&lt;span style=&quot;text-wrap-mode: nowrap;&quot;&gt;galaxy_id&amp;nbsp;&lt;/span&gt;" style="shape=partialRectangle;connectable=0;fillColor=none;top=0;left=0;bottom=0;right=0;align=left;spacingLeft=6;overflow=hidden;whiteSpace=wrap;html=1;" vertex="1" parent="MN-LZ6k577d6LrovJlPE-113">
          <mxGeometry x="30" width="199" height="30" as="geometry">
            <mxRectangle width="199" height="30" as="alternateBounds" />
          </mxGeometry>
        </mxCell>
        <mxCell id="Tk1LQlAnh9t9eojkvbLp-68" value="moon" style="shape=table;startSize=30;container=1;collapsible=1;childLayout=tableLayout;fixedRows=1;rowLines=0;fontStyle=1;align=center;resizeLast=1;html=1;" parent="1" vertex="1">
          <mxGeometry x="586" y="-495" width="218" height="301" as="geometry" />
        </mxCell>
        <mxCell id="Tk1LQlAnh9t9eojkvbLp-69" value="" style="shape=tableRow;horizontal=0;startSize=0;swimlaneHead=0;swimlaneBody=0;fillColor=none;collapsible=0;dropTarget=0;points=[[0,0.5],[1,0.5]];portConstraint=eastwest;top=0;left=0;right=0;bottom=1;" parent="Tk1LQlAnh9t9eojkvbLp-68" vertex="1">
          <mxGeometry y="30" width="218" height="30" as="geometry" />
        </mxCell>
        <mxCell id="Tk1LQlAnh9t9eojkvbLp-70" value="PK" style="shape=partialRectangle;connectable=0;fillColor=none;top=0;left=0;bottom=0;right=0;fontStyle=1;overflow=hidden;whiteSpace=wrap;html=1;" parent="Tk1LQlAnh9t9eojkvbLp-69" vertex="1">
          <mxGeometry width="30" height="30" as="geometry">
            <mxRectangle width="30" height="30" as="alternateBounds" />
          </mxGeometry>
        </mxCell>
        <mxCell id="Tk1LQlAnh9t9eojkvbLp-71" value="moon_id int SERIAL&amp;nbsp;" style="shape=partialRectangle;connectable=0;fillColor=none;top=0;left=0;bottom=0;right=0;align=left;spacingLeft=6;fontStyle=5;overflow=hidden;whiteSpace=wrap;html=1;" parent="Tk1LQlAnh9t9eojkvbLp-69" vertex="1">
          <mxGeometry x="30" width="188" height="30" as="geometry">
            <mxRectangle width="188" height="30" as="alternateBounds" />
          </mxGeometry>
        </mxCell>
        <mxCell id="Tk1LQlAnh9t9eojkvbLp-72" value="" style="shape=tableRow;horizontal=0;startSize=0;swimlaneHead=0;swimlaneBody=0;fillColor=none;collapsible=0;dropTarget=0;points=[[0,0.5],[1,0.5]];portConstraint=eastwest;top=0;left=0;right=0;bottom=0;" parent="Tk1LQlAnh9t9eojkvbLp-68" vertex="1">
          <mxGeometry y="60" width="218" height="30" as="geometry" />
        </mxCell>
        <mxCell id="Tk1LQlAnh9t9eojkvbLp-73" value="" style="shape=partialRectangle;connectable=0;fillColor=none;top=0;left=0;bottom=0;right=0;editable=1;overflow=hidden;whiteSpace=wrap;html=1;" parent="Tk1LQlAnh9t9eojkvbLp-72" vertex="1">
          <mxGeometry width="30" height="30" as="geometry">
            <mxRectangle width="30" height="30" as="alternateBounds" />
          </mxGeometry>
        </mxCell>
        <mxCell id="Tk1LQlAnh9t9eojkvbLp-74" value="name VARCHAR(100)" style="shape=partialRectangle;connectable=0;fillColor=none;top=0;left=0;bottom=0;right=0;align=left;spacingLeft=6;overflow=hidden;whiteSpace=wrap;html=1;" parent="Tk1LQlAnh9t9eojkvbLp-72" vertex="1">
          <mxGeometry x="30" width="188" height="30" as="geometry">
            <mxRectangle width="188" height="30" as="alternateBounds" />
          </mxGeometry>
        </mxCell>
        <mxCell id="Tk1LQlAnh9t9eojkvbLp-75" value="" style="shape=tableRow;horizontal=0;startSize=0;swimlaneHead=0;swimlaneBody=0;fillColor=none;collapsible=0;dropTarget=0;points=[[0,0.5],[1,0.5]];portConstraint=eastwest;top=0;left=0;right=0;bottom=0;" parent="Tk1LQlAnh9t9eojkvbLp-68" vertex="1">
          <mxGeometry y="90" width="218" height="30" as="geometry" />
        </mxCell>
        <mxCell id="Tk1LQlAnh9t9eojkvbLp-76" value="" style="shape=partialRectangle;connectable=0;fillColor=none;top=0;left=0;bottom=0;right=0;editable=1;overflow=hidden;whiteSpace=wrap;html=1;" parent="Tk1LQlAnh9t9eojkvbLp-75" vertex="1">
          <mxGeometry width="30" height="30" as="geometry">
            <mxRectangle width="30" height="30" as="alternateBounds" />
          </mxGeometry>
        </mxCell>
        <mxCell id="Tk1LQlAnh9t9eojkvbLp-77" value="description String" style="shape=partialRectangle;connectable=0;fillColor=none;top=0;left=0;bottom=0;right=0;align=left;spacingLeft=6;overflow=hidden;whiteSpace=wrap;html=1;" parent="Tk1LQlAnh9t9eojkvbLp-75" vertex="1">
          <mxGeometry x="30" width="188" height="30" as="geometry">
            <mxRectangle width="188" height="30" as="alternateBounds" />
          </mxGeometry>
        </mxCell>
        <mxCell id="Tk1LQlAnh9t9eojkvbLp-78" value="" style="shape=tableRow;horizontal=0;startSize=0;swimlaneHead=0;swimlaneBody=0;fillColor=none;collapsible=0;dropTarget=0;points=[[0,0.5],[1,0.5]];portConstraint=eastwest;top=0;left=0;right=0;bottom=0;" parent="Tk1LQlAnh9t9eojkvbLp-68" vertex="1">
          <mxGeometry y="120" width="218" height="30" as="geometry" />
        </mxCell>
        <mxCell id="Tk1LQlAnh9t9eojkvbLp-79" value="" style="shape=partialRectangle;connectable=0;fillColor=none;top=0;left=0;bottom=0;right=0;editable=1;overflow=hidden;whiteSpace=wrap;html=1;" parent="Tk1LQlAnh9t9eojkvbLp-78" vertex="1">
          <mxGeometry width="30" height="30" as="geometry">
            <mxRectangle width="30" height="30" as="alternateBounds" />
          </mxGeometry>
        </mxCell>
        <mxCell id="Tk1LQlAnh9t9eojkvbLp-80" value="&lt;span style=&quot;text-wrap-mode: nowrap;&quot;&gt;&lt;font&gt;age_in_millions_of_years INT&lt;/font&gt;&lt;/span&gt;" style="shape=partialRectangle;connectable=0;fillColor=none;top=0;left=0;bottom=0;right=0;align=left;spacingLeft=6;overflow=hidden;whiteSpace=wrap;html=1;" parent="Tk1LQlAnh9t9eojkvbLp-78" vertex="1">
          <mxGeometry x="30" width="188" height="30" as="geometry">
            <mxRectangle width="188" height="30" as="alternateBounds" />
          </mxGeometry>
        </mxCell>
        <mxCell id="MN-LZ6k577d6LrovJlPE-20" value="" style="shape=tableRow;horizontal=0;startSize=0;swimlaneHead=0;swimlaneBody=0;fillColor=none;collapsible=0;dropTarget=0;points=[[0,0.5],[1,0.5]];portConstraint=eastwest;top=0;left=0;right=0;bottom=0;" vertex="1" parent="Tk1LQlAnh9t9eojkvbLp-68">
          <mxGeometry y="150" width="218" height="30" as="geometry" />
        </mxCell>
        <mxCell id="MN-LZ6k577d6LrovJlPE-21" value="" style="shape=partialRectangle;connectable=0;fillColor=none;top=0;left=0;bottom=0;right=0;editable=1;overflow=hidden;whiteSpace=wrap;html=1;" vertex="1" parent="MN-LZ6k577d6LrovJlPE-20">
          <mxGeometry width="30" height="30" as="geometry">
            <mxRectangle width="30" height="30" as="alternateBounds" />
          </mxGeometry>
        </mxCell>
        <mxCell id="MN-LZ6k577d6LrovJlPE-22" value="&lt;span style=&quot;text-wrap-mode: nowrap;&quot;&gt;distance_from_earth&amp;nbsp;&lt;/span&gt;&lt;span style=&quot;text-wrap-mode: nowrap;&quot;&gt;&lt;font&gt;INT&lt;/font&gt;&lt;/span&gt;" style="shape=partialRectangle;connectable=0;fillColor=none;top=0;left=0;bottom=0;right=0;align=left;spacingLeft=6;overflow=hidden;whiteSpace=wrap;html=1;" vertex="1" parent="MN-LZ6k577d6LrovJlPE-20">
          <mxGeometry x="30" width="188" height="30" as="geometry">
            <mxRectangle width="188" height="30" as="alternateBounds" />
          </mxGeometry>
        </mxCell>
        <mxCell id="MN-LZ6k577d6LrovJlPE-23" value="" style="shape=tableRow;horizontal=0;startSize=0;swimlaneHead=0;swimlaneBody=0;fillColor=none;collapsible=0;dropTarget=0;points=[[0,0.5],[1,0.5]];portConstraint=eastwest;top=0;left=0;right=0;bottom=0;" vertex="1" parent="Tk1LQlAnh9t9eojkvbLp-68">
          <mxGeometry y="180" width="218" height="31" as="geometry" />
        </mxCell>
        <mxCell id="MN-LZ6k577d6LrovJlPE-24" value="" style="shape=partialRectangle;connectable=0;fillColor=none;top=0;left=0;bottom=0;right=0;editable=1;overflow=hidden;whiteSpace=wrap;html=1;" vertex="1" parent="MN-LZ6k577d6LrovJlPE-23">
          <mxGeometry width="30" height="31" as="geometry">
            <mxRectangle width="30" height="31" as="alternateBounds" />
          </mxGeometry>
        </mxCell>
        <mxCell id="MN-LZ6k577d6LrovJlPE-25" value="&lt;span style=&quot;text-wrap-mode: nowrap;&quot;&gt;&lt;font&gt;has_life BOOLEAN&lt;/font&gt;&lt;/span&gt;" style="shape=partialRectangle;connectable=0;fillColor=none;top=0;left=0;bottom=0;right=0;align=left;spacingLeft=6;overflow=hidden;whiteSpace=wrap;html=1;" vertex="1" parent="MN-LZ6k577d6LrovJlPE-23">
          <mxGeometry x="30" width="188" height="31" as="geometry">
            <mxRectangle width="188" height="31" as="alternateBounds" />
          </mxGeometry>
        </mxCell>
        <mxCell id="MN-LZ6k577d6LrovJlPE-26" value="" style="shape=tableRow;horizontal=0;startSize=0;swimlaneHead=0;swimlaneBody=0;fillColor=none;collapsible=0;dropTarget=0;points=[[0,0.5],[1,0.5]];portConstraint=eastwest;top=0;left=0;right=0;bottom=0;" vertex="1" parent="Tk1LQlAnh9t9eojkvbLp-68">
          <mxGeometry y="211" width="218" height="30" as="geometry" />
        </mxCell>
        <mxCell id="MN-LZ6k577d6LrovJlPE-27" value="" style="shape=partialRectangle;connectable=0;fillColor=none;top=0;left=0;bottom=0;right=0;editable=1;overflow=hidden;whiteSpace=wrap;html=1;" vertex="1" parent="MN-LZ6k577d6LrovJlPE-26">
          <mxGeometry width="30" height="30" as="geometry">
            <mxRectangle width="30" height="30" as="alternateBounds" />
          </mxGeometry>
        </mxCell>
        <mxCell id="MN-LZ6k577d6LrovJlPE-28" value="&lt;span style=&quot;text-wrap-mode: nowrap;&quot;&gt;is_spherical BOOLEAN&lt;/span&gt;" style="shape=partialRectangle;connectable=0;fillColor=none;top=0;left=0;bottom=0;right=0;align=left;spacingLeft=6;overflow=hidden;whiteSpace=wrap;html=1;" vertex="1" parent="MN-LZ6k577d6LrovJlPE-26">
          <mxGeometry x="30" width="188" height="30" as="geometry">
            <mxRectangle width="188" height="30" as="alternateBounds" />
          </mxGeometry>
        </mxCell>
        <mxCell id="MN-LZ6k577d6LrovJlPE-76" value="" style="shape=tableRow;horizontal=0;startSize=0;swimlaneHead=0;swimlaneBody=0;fillColor=none;collapsible=0;dropTarget=0;points=[[0,0.5],[1,0.5]];portConstraint=eastwest;top=0;left=0;right=0;bottom=0;" vertex="1" parent="Tk1LQlAnh9t9eojkvbLp-68">
          <mxGeometry y="241" width="218" height="30" as="geometry" />
        </mxCell>
        <mxCell id="MN-LZ6k577d6LrovJlPE-77" value="" style="shape=partialRectangle;connectable=0;fillColor=none;top=0;left=0;bottom=0;right=0;editable=1;overflow=hidden;whiteSpace=wrap;html=1;" vertex="1" parent="MN-LZ6k577d6LrovJlPE-76">
          <mxGeometry width="30" height="30" as="geometry">
            <mxRectangle width="30" height="30" as="alternateBounds" />
          </mxGeometry>
        </mxCell>
        <mxCell id="MN-LZ6k577d6LrovJlPE-78" value="&lt;span style=&quot;text-wrap-mode: nowrap;&quot;&gt;approx_area NUMERIC&lt;/span&gt;" style="shape=partialRectangle;connectable=0;fillColor=none;top=0;left=0;bottom=0;right=0;align=left;spacingLeft=6;overflow=hidden;whiteSpace=wrap;html=1;" vertex="1" parent="MN-LZ6k577d6LrovJlPE-76">
          <mxGeometry x="30" width="188" height="30" as="geometry">
            <mxRectangle width="188" height="30" as="alternateBounds" />
          </mxGeometry>
        </mxCell>
        <mxCell id="MN-LZ6k577d6LrovJlPE-174" value="" style="shape=tableRow;horizontal=0;startSize=0;swimlaneHead=0;swimlaneBody=0;fillColor=none;collapsible=0;dropTarget=0;points=[[0,0.5],[1,0.5]];portConstraint=eastwest;top=0;left=0;right=0;bottom=0;" vertex="1" parent="Tk1LQlAnh9t9eojkvbLp-68">
          <mxGeometry y="271" width="218" height="30" as="geometry" />
        </mxCell>
        <mxCell id="MN-LZ6k577d6LrovJlPE-175" value="&lt;b&gt;FK&lt;/b&gt;" style="shape=partialRectangle;connectable=0;fillColor=none;top=0;left=0;bottom=0;right=0;editable=1;overflow=hidden;whiteSpace=wrap;html=1;" vertex="1" parent="MN-LZ6k577d6LrovJlPE-174">
          <mxGeometry width="30" height="30" as="geometry">
            <mxRectangle width="30" height="30" as="alternateBounds" />
          </mxGeometry>
        </mxCell>
        <mxCell id="MN-LZ6k577d6LrovJlPE-176" value="planet_id" style="shape=partialRectangle;connectable=0;fillColor=none;top=0;left=0;bottom=0;right=0;align=left;spacingLeft=6;overflow=hidden;whiteSpace=wrap;html=1;" vertex="1" parent="MN-LZ6k577d6LrovJlPE-174">
          <mxGeometry x="30" width="188" height="30" as="geometry">
            <mxRectangle width="188" height="30" as="alternateBounds" />
          </mxGeometry>
        </mxCell>
        <mxCell id="Tk1LQlAnh9t9eojkvbLp-81" value="planet" style="shape=table;startSize=30;container=1;collapsible=1;childLayout=tableLayout;fixedRows=1;rowLines=0;fontStyle=1;align=center;resizeLast=1;html=1;" parent="1" vertex="1">
          <mxGeometry x="286" y="-570" width="222" height="300" as="geometry" />
        </mxCell>
        <mxCell id="Tk1LQlAnh9t9eojkvbLp-82" value="" style="shape=tableRow;horizontal=0;startSize=0;swimlaneHead=0;swimlaneBody=0;fillColor=none;collapsible=0;dropTarget=0;points=[[0,0.5],[1,0.5]];portConstraint=eastwest;top=0;left=0;right=0;bottom=1;" parent="Tk1LQlAnh9t9eojkvbLp-81" vertex="1">
          <mxGeometry y="30" width="222" height="30" as="geometry" />
        </mxCell>
        <mxCell id="Tk1LQlAnh9t9eojkvbLp-83" value="PK" style="shape=partialRectangle;connectable=0;fillColor=none;top=0;left=0;bottom=0;right=0;fontStyle=1;overflow=hidden;whiteSpace=wrap;html=1;" parent="Tk1LQlAnh9t9eojkvbLp-82" vertex="1">
          <mxGeometry width="30" height="30" as="geometry">
            <mxRectangle width="30" height="30" as="alternateBounds" />
          </mxGeometry>
        </mxCell>
        <mxCell id="Tk1LQlAnh9t9eojkvbLp-84" value="planet_id int SERIAL&amp;nbsp;" style="shape=partialRectangle;connectable=0;fillColor=none;top=0;left=0;bottom=0;right=0;align=left;spacingLeft=6;fontStyle=5;overflow=hidden;whiteSpace=wrap;html=1;" parent="Tk1LQlAnh9t9eojkvbLp-82" vertex="1">
          <mxGeometry x="30" width="192" height="30" as="geometry">
            <mxRectangle width="192" height="30" as="alternateBounds" />
          </mxGeometry>
        </mxCell>
        <mxCell id="Tk1LQlAnh9t9eojkvbLp-85" value="" style="shape=tableRow;horizontal=0;startSize=0;swimlaneHead=0;swimlaneBody=0;fillColor=none;collapsible=0;dropTarget=0;points=[[0,0.5],[1,0.5]];portConstraint=eastwest;top=0;left=0;right=0;bottom=0;" parent="Tk1LQlAnh9t9eojkvbLp-81" vertex="1">
          <mxGeometry y="60" width="222" height="30" as="geometry" />
        </mxCell>
        <mxCell id="Tk1LQlAnh9t9eojkvbLp-86" value="" style="shape=partialRectangle;connectable=0;fillColor=none;top=0;left=0;bottom=0;right=0;editable=1;overflow=hidden;whiteSpace=wrap;html=1;" parent="Tk1LQlAnh9t9eojkvbLp-85" vertex="1">
          <mxGeometry width="30" height="30" as="geometry">
            <mxRectangle width="30" height="30" as="alternateBounds" />
          </mxGeometry>
        </mxCell>
        <mxCell id="Tk1LQlAnh9t9eojkvbLp-87" value="name VARCHAR(100)" style="shape=partialRectangle;connectable=0;fillColor=none;top=0;left=0;bottom=0;right=0;align=left;spacingLeft=6;overflow=hidden;whiteSpace=wrap;html=1;" parent="Tk1LQlAnh9t9eojkvbLp-85" vertex="1">
          <mxGeometry x="30" width="192" height="30" as="geometry">
            <mxRectangle width="192" height="30" as="alternateBounds" />
          </mxGeometry>
        </mxCell>
        <mxCell id="Tk1LQlAnh9t9eojkvbLp-88" value="" style="shape=tableRow;horizontal=0;startSize=0;swimlaneHead=0;swimlaneBody=0;fillColor=none;collapsible=0;dropTarget=0;points=[[0,0.5],[1,0.5]];portConstraint=eastwest;top=0;left=0;right=0;bottom=0;" parent="Tk1LQlAnh9t9eojkvbLp-81" vertex="1">
          <mxGeometry y="90" width="222" height="30" as="geometry" />
        </mxCell>
        <mxCell id="Tk1LQlAnh9t9eojkvbLp-89" value="" style="shape=partialRectangle;connectable=0;fillColor=none;top=0;left=0;bottom=0;right=0;editable=1;overflow=hidden;whiteSpace=wrap;html=1;" parent="Tk1LQlAnh9t9eojkvbLp-88" vertex="1">
          <mxGeometry width="30" height="30" as="geometry">
            <mxRectangle width="30" height="30" as="alternateBounds" />
          </mxGeometry>
        </mxCell>
        <mxCell id="Tk1LQlAnh9t9eojkvbLp-90" value="description String" style="shape=partialRectangle;connectable=0;fillColor=none;top=0;left=0;bottom=0;right=0;align=left;spacingLeft=6;overflow=hidden;whiteSpace=wrap;html=1;" parent="Tk1LQlAnh9t9eojkvbLp-88" vertex="1">
          <mxGeometry x="30" width="192" height="30" as="geometry">
            <mxRectangle width="192" height="30" as="alternateBounds" />
          </mxGeometry>
        </mxCell>
        <mxCell id="Tk1LQlAnh9t9eojkvbLp-91" value="" style="shape=tableRow;horizontal=0;startSize=0;swimlaneHead=0;swimlaneBody=0;fillColor=none;collapsible=0;dropTarget=0;points=[[0,0.5],[1,0.5]];portConstraint=eastwest;top=0;left=0;right=0;bottom=0;" parent="Tk1LQlAnh9t9eojkvbLp-81" vertex="1">
          <mxGeometry y="120" width="222" height="30" as="geometry" />
        </mxCell>
        <mxCell id="Tk1LQlAnh9t9eojkvbLp-92" value="" style="shape=partialRectangle;connectable=0;fillColor=none;top=0;left=0;bottom=0;right=0;editable=1;overflow=hidden;whiteSpace=wrap;html=1;" parent="Tk1LQlAnh9t9eojkvbLp-91" vertex="1">
          <mxGeometry width="30" height="30" as="geometry">
            <mxRectangle width="30" height="30" as="alternateBounds" />
          </mxGeometry>
        </mxCell>
        <mxCell id="Tk1LQlAnh9t9eojkvbLp-93" value="planet_type String" style="shape=partialRectangle;connectable=0;fillColor=none;top=0;left=0;bottom=0;right=0;align=left;spacingLeft=6;overflow=hidden;whiteSpace=wrap;html=1;" parent="Tk1LQlAnh9t9eojkvbLp-91" vertex="1">
          <mxGeometry x="30" width="192" height="30" as="geometry">
            <mxRectangle width="192" height="30" as="alternateBounds" />
          </mxGeometry>
        </mxCell>
        <mxCell id="MN-LZ6k577d6LrovJlPE-123" value="" style="shape=tableRow;horizontal=0;startSize=0;swimlaneHead=0;swimlaneBody=0;fillColor=none;collapsible=0;dropTarget=0;points=[[0,0.5],[1,0.5]];portConstraint=eastwest;top=0;left=0;right=0;bottom=0;" vertex="1" parent="Tk1LQlAnh9t9eojkvbLp-81">
          <mxGeometry y="150" width="222" height="30" as="geometry" />
        </mxCell>
        <mxCell id="MN-LZ6k577d6LrovJlPE-124" value="" style="shape=partialRectangle;connectable=0;fillColor=none;top=0;left=0;bottom=0;right=0;editable=1;overflow=hidden;whiteSpace=wrap;html=1;" vertex="1" parent="MN-LZ6k577d6LrovJlPE-123">
          <mxGeometry width="30" height="30" as="geometry">
            <mxRectangle width="30" height="30" as="alternateBounds" />
          </mxGeometry>
        </mxCell>
        <mxCell id="MN-LZ6k577d6LrovJlPE-125" value="&lt;span style=&quot;text-wrap-mode: nowrap;&quot;&gt;has_life BOOLEAN&lt;/span&gt;" style="shape=partialRectangle;connectable=0;fillColor=none;top=0;left=0;bottom=0;right=0;align=left;spacingLeft=6;overflow=hidden;whiteSpace=wrap;html=1;" vertex="1" parent="MN-LZ6k577d6LrovJlPE-123">
          <mxGeometry x="30" width="192" height="30" as="geometry">
            <mxRectangle width="192" height="30" as="alternateBounds" />
          </mxGeometry>
        </mxCell>
        <mxCell id="MN-LZ6k577d6LrovJlPE-117" value="" style="shape=tableRow;horizontal=0;startSize=0;swimlaneHead=0;swimlaneBody=0;fillColor=none;collapsible=0;dropTarget=0;points=[[0,0.5],[1,0.5]];portConstraint=eastwest;top=0;left=0;right=0;bottom=0;" vertex="1" parent="Tk1LQlAnh9t9eojkvbLp-81">
          <mxGeometry y="180" width="222" height="30" as="geometry" />
        </mxCell>
        <mxCell id="MN-LZ6k577d6LrovJlPE-118" value="" style="shape=partialRectangle;connectable=0;fillColor=none;top=0;left=0;bottom=0;right=0;editable=1;overflow=hidden;whiteSpace=wrap;html=1;" vertex="1" parent="MN-LZ6k577d6LrovJlPE-117">
          <mxGeometry width="30" height="30" as="geometry">
            <mxRectangle width="30" height="30" as="alternateBounds" />
          </mxGeometry>
        </mxCell>
        <mxCell id="MN-LZ6k577d6LrovJlPE-119" value="&lt;span style=&quot;text-wrap-mode: nowrap;&quot;&gt;age_in_millions_of_years INT&lt;/span&gt;" style="shape=partialRectangle;connectable=0;fillColor=none;top=0;left=0;bottom=0;right=0;align=left;spacingLeft=6;overflow=hidden;whiteSpace=wrap;html=1;" vertex="1" parent="MN-LZ6k577d6LrovJlPE-117">
          <mxGeometry x="30" width="192" height="30" as="geometry">
            <mxRectangle width="192" height="30" as="alternateBounds" />
          </mxGeometry>
        </mxCell>
        <mxCell id="MN-LZ6k577d6LrovJlPE-120" value="" style="shape=tableRow;horizontal=0;startSize=0;swimlaneHead=0;swimlaneBody=0;fillColor=none;collapsible=0;dropTarget=0;points=[[0,0.5],[1,0.5]];portConstraint=eastwest;top=0;left=0;right=0;bottom=0;" vertex="1" parent="Tk1LQlAnh9t9eojkvbLp-81">
          <mxGeometry y="210" width="222" height="30" as="geometry" />
        </mxCell>
        <mxCell id="MN-LZ6k577d6LrovJlPE-121" value="" style="shape=partialRectangle;connectable=0;fillColor=none;top=0;left=0;bottom=0;right=0;editable=1;overflow=hidden;whiteSpace=wrap;html=1;" vertex="1" parent="MN-LZ6k577d6LrovJlPE-120">
          <mxGeometry width="30" height="30" as="geometry">
            <mxRectangle width="30" height="30" as="alternateBounds" />
          </mxGeometry>
        </mxCell>
        <mxCell id="MN-LZ6k577d6LrovJlPE-122" value="&lt;span style=&quot;text-wrap-mode: nowrap;&quot;&gt;distance_from_earth&amp;nbsp;&lt;/span&gt;&lt;span style=&quot;text-wrap-mode: nowrap;&quot;&gt;INT&lt;/span&gt;" style="shape=partialRectangle;connectable=0;fillColor=none;top=0;left=0;bottom=0;right=0;align=left;spacingLeft=6;overflow=hidden;whiteSpace=wrap;html=1;" vertex="1" parent="MN-LZ6k577d6LrovJlPE-120">
          <mxGeometry x="30" width="192" height="30" as="geometry">
            <mxRectangle width="192" height="30" as="alternateBounds" />
          </mxGeometry>
        </mxCell>
        <mxCell id="MN-LZ6k577d6LrovJlPE-151" value="" style="shape=tableRow;horizontal=0;startSize=0;swimlaneHead=0;swimlaneBody=0;fillColor=none;collapsible=0;dropTarget=0;points=[[0,0.5],[1,0.5]];portConstraint=eastwest;top=0;left=0;right=0;bottom=0;" vertex="1" parent="Tk1LQlAnh9t9eojkvbLp-81">
          <mxGeometry y="240" width="222" height="30" as="geometry" />
        </mxCell>
        <mxCell id="MN-LZ6k577d6LrovJlPE-152" value="" style="shape=partialRectangle;connectable=0;fillColor=none;top=0;left=0;bottom=0;right=0;editable=1;overflow=hidden;whiteSpace=wrap;html=1;" vertex="1" parent="MN-LZ6k577d6LrovJlPE-151">
          <mxGeometry width="30" height="30" as="geometry">
            <mxRectangle width="30" height="30" as="alternateBounds" />
          </mxGeometry>
        </mxCell>
        <mxCell id="MN-LZ6k577d6LrovJlPE-153" value="&lt;span style=&quot;text-wrap-mode: nowrap;&quot;&gt;approx_area NUMERIC&lt;/span&gt;" style="shape=partialRectangle;connectable=0;fillColor=none;top=0;left=0;bottom=0;right=0;align=left;spacingLeft=6;overflow=hidden;whiteSpace=wrap;html=1;" vertex="1" parent="MN-LZ6k577d6LrovJlPE-151">
          <mxGeometry x="30" width="192" height="30" as="geometry">
            <mxRectangle width="192" height="30" as="alternateBounds" />
          </mxGeometry>
        </mxCell>
        <mxCell id="MN-LZ6k577d6LrovJlPE-169" value="" style="shape=tableRow;horizontal=0;startSize=0;swimlaneHead=0;swimlaneBody=0;fillColor=none;collapsible=0;dropTarget=0;points=[[0,0.5],[1,0.5]];portConstraint=eastwest;top=0;left=0;right=0;bottom=0;" vertex="1" parent="Tk1LQlAnh9t9eojkvbLp-81">
          <mxGeometry y="270" width="222" height="30" as="geometry" />
        </mxCell>
        <mxCell id="MN-LZ6k577d6LrovJlPE-170" value="&lt;b&gt;FK&lt;/b&gt;" style="shape=partialRectangle;connectable=0;fillColor=none;top=0;left=0;bottom=0;right=0;editable=1;overflow=hidden;whiteSpace=wrap;html=1;" vertex="1" parent="MN-LZ6k577d6LrovJlPE-169">
          <mxGeometry width="30" height="30" as="geometry">
            <mxRectangle width="30" height="30" as="alternateBounds" />
          </mxGeometry>
        </mxCell>
        <mxCell id="MN-LZ6k577d6LrovJlPE-171" value="star_id" style="shape=partialRectangle;connectable=0;fillColor=none;top=0;left=0;bottom=0;right=0;align=left;spacingLeft=6;overflow=hidden;whiteSpace=wrap;html=1;" vertex="1" parent="MN-LZ6k577d6LrovJlPE-169">
          <mxGeometry x="30" width="192" height="30" as="geometry">
            <mxRectangle width="192" height="30" as="alternateBounds" />
          </mxGeometry>
        </mxCell>
        <mxCell id="MN-LZ6k577d6LrovJlPE-1" value="species" style="shape=table;startSize=30;container=1;collapsible=1;childLayout=tableLayout;fixedRows=1;rowLines=0;fontStyle=1;align=center;resizeLast=1;html=1;" vertex="1" parent="1">
          <mxGeometry x="30" y="-327" width="180" height="150" as="geometry" />
        </mxCell>
        <mxCell id="MN-LZ6k577d6LrovJlPE-2" value="" style="shape=tableRow;horizontal=0;startSize=0;swimlaneHead=0;swimlaneBody=0;fillColor=none;collapsible=0;dropTarget=0;points=[[0,0.5],[1,0.5]];portConstraint=eastwest;top=0;left=0;right=0;bottom=1;" vertex="1" parent="MN-LZ6k577d6LrovJlPE-1">
          <mxGeometry y="30" width="180" height="30" as="geometry" />
        </mxCell>
        <mxCell id="MN-LZ6k577d6LrovJlPE-3" value="PK" style="shape=partialRectangle;connectable=0;fillColor=none;top=0;left=0;bottom=0;right=0;fontStyle=1;overflow=hidden;whiteSpace=wrap;html=1;" vertex="1" parent="MN-LZ6k577d6LrovJlPE-2">
          <mxGeometry width="30" height="30" as="geometry">
            <mxRectangle width="30" height="30" as="alternateBounds" />
          </mxGeometry>
        </mxCell>
        <mxCell id="MN-LZ6k577d6LrovJlPE-4" value="&lt;span style=&quot;text-align: center; text-wrap-mode: nowrap;&quot;&gt;species&lt;/span&gt;_id int SERIAL" style="shape=partialRectangle;connectable=0;fillColor=none;top=0;left=0;bottom=0;right=0;align=left;spacingLeft=6;fontStyle=5;overflow=hidden;whiteSpace=wrap;html=1;" vertex="1" parent="MN-LZ6k577d6LrovJlPE-2">
          <mxGeometry x="30" width="150" height="30" as="geometry">
            <mxRectangle width="150" height="30" as="alternateBounds" />
          </mxGeometry>
        </mxCell>
        <mxCell id="MN-LZ6k577d6LrovJlPE-5" value="" style="shape=tableRow;horizontal=0;startSize=0;swimlaneHead=0;swimlaneBody=0;fillColor=none;collapsible=0;dropTarget=0;points=[[0,0.5],[1,0.5]];portConstraint=eastwest;top=0;left=0;right=0;bottom=0;" vertex="1" parent="MN-LZ6k577d6LrovJlPE-1">
          <mxGeometry y="60" width="180" height="30" as="geometry" />
        </mxCell>
        <mxCell id="MN-LZ6k577d6LrovJlPE-6" value="" style="shape=partialRectangle;connectable=0;fillColor=none;top=0;left=0;bottom=0;right=0;editable=1;overflow=hidden;whiteSpace=wrap;html=1;" vertex="1" parent="MN-LZ6k577d6LrovJlPE-5">
          <mxGeometry width="30" height="30" as="geometry">
            <mxRectangle width="30" height="30" as="alternateBounds" />
          </mxGeometry>
        </mxCell>
        <mxCell id="MN-LZ6k577d6LrovJlPE-7" value="name VARCHAR(100)" style="shape=partialRectangle;connectable=0;fillColor=none;top=0;left=0;bottom=0;right=0;align=left;spacingLeft=6;overflow=hidden;whiteSpace=wrap;html=1;" vertex="1" parent="MN-LZ6k577d6LrovJlPE-5">
          <mxGeometry x="30" width="150" height="30" as="geometry">
            <mxRectangle width="150" height="30" as="alternateBounds" />
          </mxGeometry>
        </mxCell>
        <mxCell id="MN-LZ6k577d6LrovJlPE-8" value="" style="shape=tableRow;horizontal=0;startSize=0;swimlaneHead=0;swimlaneBody=0;fillColor=none;collapsible=0;dropTarget=0;points=[[0,0.5],[1,0.5]];portConstraint=eastwest;top=0;left=0;right=0;bottom=0;" vertex="1" parent="MN-LZ6k577d6LrovJlPE-1">
          <mxGeometry y="90" width="180" height="30" as="geometry" />
        </mxCell>
        <mxCell id="MN-LZ6k577d6LrovJlPE-9" value="" style="shape=partialRectangle;connectable=0;fillColor=none;top=0;left=0;bottom=0;right=0;editable=1;overflow=hidden;whiteSpace=wrap;html=1;" vertex="1" parent="MN-LZ6k577d6LrovJlPE-8">
          <mxGeometry width="30" height="30" as="geometry">
            <mxRectangle width="30" height="30" as="alternateBounds" />
          </mxGeometry>
        </mxCell>
        <mxCell id="MN-LZ6k577d6LrovJlPE-10" value="description String" style="shape=partialRectangle;connectable=0;fillColor=none;top=0;left=0;bottom=0;right=0;align=left;spacingLeft=6;overflow=hidden;whiteSpace=wrap;html=1;" vertex="1" parent="MN-LZ6k577d6LrovJlPE-8">
          <mxGeometry x="30" width="150" height="30" as="geometry">
            <mxRectangle width="150" height="30" as="alternateBounds" />
          </mxGeometry>
        </mxCell>
        <mxCell id="MN-LZ6k577d6LrovJlPE-11" value="" style="shape=tableRow;horizontal=0;startSize=0;swimlaneHead=0;swimlaneBody=0;fillColor=none;collapsible=0;dropTarget=0;points=[[0,0.5],[1,0.5]];portConstraint=eastwest;top=0;left=0;right=0;bottom=0;" vertex="1" parent="MN-LZ6k577d6LrovJlPE-1">
          <mxGeometry y="120" width="180" height="30" as="geometry" />
        </mxCell>
        <mxCell id="MN-LZ6k577d6LrovJlPE-12" value="" style="shape=partialRectangle;connectable=0;fillColor=none;top=0;left=0;bottom=0;right=0;editable=1;overflow=hidden;whiteSpace=wrap;html=1;" vertex="1" parent="MN-LZ6k577d6LrovJlPE-11">
          <mxGeometry width="30" height="30" as="geometry">
            <mxRectangle width="30" height="30" as="alternateBounds" />
          </mxGeometry>
        </mxCell>
        <mxCell id="MN-LZ6k577d6LrovJlPE-13" value="Row 3" style="shape=partialRectangle;connectable=0;fillColor=none;top=0;left=0;bottom=0;right=0;align=left;spacingLeft=6;overflow=hidden;whiteSpace=wrap;html=1;" vertex="1" parent="MN-LZ6k577d6LrovJlPE-11">
          <mxGeometry x="30" width="150" height="30" as="geometry">
            <mxRectangle width="150" height="30" as="alternateBounds" />
          </mxGeometry>
        </mxCell>
        <mxCell id="MN-LZ6k577d6LrovJlPE-15" value="&lt;ul style=&quot;box-sizing: border-box; list-style: none; margin: 1rem 0px 0px; padding: 0px; color: rgb(51, 51, 51); font-family: -apple-system, BlinkMacSystemFont, &amp;quot;Segoe UI&amp;quot;, Roboto, Oxygen, Ubuntu, Cantarell, &amp;quot;Fira Sans&amp;quot;, &amp;quot;Droid Sans&amp;quot;, &amp;quot;Helvetica Neue&amp;quot;, sans-serif; text-align: start; background-color: rgb(255, 255, 255);&quot; class=&quot;css-15g2oxy&quot;&gt;&lt;li&gt;Complete the tasks below&lt;/li&gt;&lt;li style=&quot;box-sizing: border-box; margin-left: 0px; margin-bottom: 1rem; display: flex;&quot; class=&quot;css-1wjlep9&quot;&gt;&lt;span style=&quot;box-sizing: border-box; display: inline-block; font-family: NextIcon; -webkit-font-smoothing: antialiased; color: rgb(70, 188, 21);&quot; class=&quot;next-icon next-icon-success-filling next-xs&quot;&gt;&lt;/span&gt;&lt;span style=&quot;box-sizing: border-box; margin-left: 0.5rem;&quot;&gt;&lt;span style=&quot;box-sizing: border-box;&quot; class=&quot;coderoad-markdown&quot;&gt;&lt;p style=&quot;box-sizing: border-box; line-height: 20px; margin: 0px 0px 0.5rem;&quot;&gt;You should create a database named&amp;nbsp;&lt;code style=&quot;box-sizing: border-box; font-family: source-code-pro, Menlo, Monaco, Consolas, &amp;quot;Courier New&amp;quot;, monospace; color: rgb(0, 0, 0); background-color: rgba(27, 31, 35, 0.05); padding: 0.15rem 0.3rem; border-radius: 0.3rem; font-size: 9.6px; margin: 0px 2px; text-wrap-mode: nowrap; border: 1px solid rgb(234, 234, 234);&quot;&gt;universe&lt;/code&gt;&lt;/p&gt;&lt;/span&gt;&lt;/span&gt;&lt;/li&gt;&lt;li style=&quot;box-sizing: border-box; margin-left: 0px; margin-bottom: 1rem; display: flex;&quot; class=&quot;css-1wjlep9&quot;&gt;&lt;span style=&quot;box-sizing: border-box; display: inline-block; font-family: NextIcon; -webkit-font-smoothing: antialiased; color: lightgrey;&quot; class=&quot;next-icon next-icon-success-filling next-xs&quot;&gt;&lt;/span&gt;&lt;span style=&quot;box-sizing: border-box; margin-left: 0.5rem;&quot;&gt;&lt;span style=&quot;box-sizing: border-box;&quot; class=&quot;coderoad-markdown&quot;&gt;&lt;p style=&quot;box-sizing: border-box; line-height: 20px; margin: 0px 0px 0.5rem;&quot;&gt;Be sure to connect to your database with&amp;nbsp;&lt;code style=&quot;box-sizing: border-box; font-family: source-code-pro, Menlo, Monaco, Consolas, &amp;quot;Courier New&amp;quot;, monospace; color: rgb(0, 0, 0); background-color: rgba(27, 31, 35, 0.05); padding: 0.15rem 0.3rem; border-radius: 0.3rem; font-size: 9.6px; margin: 0px 2px; text-wrap-mode: nowrap; border: 1px solid rgb(234, 234, 234);&quot;&gt;\c universe&lt;/code&gt;. Then, you should add tables named&amp;nbsp;&lt;code style=&quot;box-sizing: border-box; font-family: source-code-pro, Menlo, Monaco, Consolas, &amp;quot;Courier New&amp;quot;, monospace; color: rgb(0, 0, 0); background-color: rgba(27, 31, 35, 0.05); padding: 0.15rem 0.3rem; border-radius: 0.3rem; font-size: 9.6px; margin: 0px 2px; text-wrap-mode: nowrap; border: 1px solid rgb(234, 234, 234);&quot;&gt;galaxy&lt;/code&gt;,&amp;nbsp;&lt;code style=&quot;box-sizing: border-box; font-family: source-code-pro, Menlo, Monaco, Consolas, &amp;quot;Courier New&amp;quot;, monospace; color: rgb(0, 0, 0); background-color: rgba(27, 31, 35, 0.05); padding: 0.15rem 0.3rem; border-radius: 0.3rem; font-size: 9.6px; margin: 0px 2px; text-wrap-mode: nowrap; border: 1px solid rgb(234, 234, 234);&quot;&gt;star&lt;/code&gt;,&amp;nbsp;&lt;code style=&quot;box-sizing: border-box; font-family: source-code-pro, Menlo, Monaco, Consolas, &amp;quot;Courier New&amp;quot;, monospace; color: rgb(0, 0, 0); background-color: rgba(27, 31, 35, 0.05); padding: 0.15rem 0.3rem; border-radius: 0.3rem; font-size: 9.6px; margin: 0px 2px; text-wrap-mode: nowrap; border: 1px solid rgb(234, 234, 234);&quot;&gt;planet&lt;/code&gt;, and&amp;nbsp;&lt;code style=&quot;box-sizing: border-box; font-family: source-code-pro, Menlo, Monaco, Consolas, &amp;quot;Courier New&amp;quot;, monospace; color: rgb(0, 0, 0); background-color: rgba(27, 31, 35, 0.05); padding: 0.15rem 0.3rem; border-radius: 0.3rem; font-size: 9.6px; margin: 0px 2px; text-wrap-mode: nowrap; border: 1px solid rgb(234, 234, 234);&quot;&gt;moon&lt;/code&gt;&lt;/p&gt;&lt;/span&gt;&lt;/span&gt;&lt;/li&gt;&lt;li style=&quot;box-sizing: border-box; margin-left: 0px; margin-bottom: 1rem; display: flex;&quot; class=&quot;css-1wjlep9&quot;&gt;&lt;span style=&quot;box-sizing: border-box; display: inline-block; font-family: NextIcon; -webkit-font-smoothing: antialiased; color: lightgrey;&quot; class=&quot;next-icon next-icon-success-filling next-xs&quot;&gt;&lt;/span&gt;&lt;span style=&quot;box-sizing: border-box; margin-left: 0.5rem;&quot;&gt;&lt;span style=&quot;box-sizing: border-box;&quot; class=&quot;coderoad-markdown&quot;&gt;&lt;p style=&quot;box-sizing: border-box; line-height: 20px; margin: 0px 0px 0.5rem;&quot;&gt;Each table should have a primary key&lt;/p&gt;&lt;/span&gt;&lt;/span&gt;&lt;/li&gt;&lt;li style=&quot;box-sizing: border-box; margin-left: 0px; margin-bottom: 1rem; display: flex;&quot; class=&quot;css-1wjlep9&quot;&gt;&lt;span style=&quot;box-sizing: border-box; display: inline-block; font-family: NextIcon; -webkit-font-smoothing: antialiased; color: lightgrey;&quot; class=&quot;next-icon next-icon-success-filling next-xs&quot;&gt;&lt;/span&gt;&lt;span style=&quot;box-sizing: border-box; margin-left: 0.5rem;&quot;&gt;&lt;span style=&quot;box-sizing: border-box;&quot; class=&quot;coderoad-markdown&quot;&gt;&lt;p style=&quot;box-sizing: border-box; line-height: 20px; margin: 0px 0px 0.5rem;&quot;&gt;Each primary key should automatically increment&lt;/p&gt;&lt;/span&gt;&lt;/span&gt;&lt;/li&gt;&lt;li style=&quot;box-sizing: border-box; margin-left: 0px; margin-bottom: 1rem; display: flex;&quot; class=&quot;css-1wjlep9&quot;&gt;&lt;span style=&quot;box-sizing: border-box; display: inline-block; font-family: NextIcon; -webkit-font-smoothing: antialiased; color: lightgrey;&quot; class=&quot;next-icon next-icon-success-filling next-xs&quot;&gt;&lt;/span&gt;&lt;span style=&quot;box-sizing: border-box; margin-left: 0.5rem;&quot;&gt;&lt;span style=&quot;box-sizing: border-box;&quot; class=&quot;coderoad-markdown&quot;&gt;&lt;p style=&quot;box-sizing: border-box; line-height: 20px; margin: 0px 0px 0.5rem;&quot;&gt;Each table should have a&amp;nbsp;&lt;code style=&quot;box-sizing: border-box; font-family: source-code-pro, Menlo, Monaco, Consolas, &amp;quot;Courier New&amp;quot;, monospace; color: rgb(0, 0, 0); background-color: rgba(27, 31, 35, 0.05); padding: 0.15rem 0.3rem; border-radius: 0.3rem; font-size: 9.6px; margin: 0px 2px; text-wrap-mode: nowrap; border: 1px solid rgb(234, 234, 234);&quot;&gt;name&lt;/code&gt;&amp;nbsp;column&lt;/p&gt;&lt;/span&gt;&lt;/span&gt;&lt;/li&gt;&lt;li style=&quot;box-sizing: border-box; margin-left: 0px; margin-bottom: 1rem; display: flex;&quot; class=&quot;css-1wjlep9&quot;&gt;&lt;span style=&quot;box-sizing: border-box; display: inline-block; font-family: NextIcon; -webkit-font-smoothing: antialiased; color: lightgrey;&quot; class=&quot;next-icon next-icon-success-filling next-xs&quot;&gt;&lt;/span&gt;&lt;span style=&quot;box-sizing: border-box; margin-left: 0.5rem;&quot;&gt;&lt;span style=&quot;box-sizing: border-box;&quot; class=&quot;coderoad-markdown&quot;&gt;&lt;p style=&quot;box-sizing: border-box; line-height: 20px; margin: 0px 0px 0.5rem;&quot;&gt;You should use the&amp;nbsp;&lt;code style=&quot;box-sizing: border-box; font-family: source-code-pro, Menlo, Monaco, Consolas, &amp;quot;Courier New&amp;quot;, monospace; color: rgb(0, 0, 0); background-color: rgba(27, 31, 35, 0.05); padding: 0.15rem 0.3rem; border-radius: 0.3rem; font-size: 9.6px; margin: 0px 2px; text-wrap-mode: nowrap; border: 1px solid rgb(234, 234, 234);&quot;&gt;INT&lt;/code&gt;&amp;nbsp;data type for at least two columns that are not a primary or foreign key&lt;/p&gt;&lt;/span&gt;&lt;/span&gt;&lt;/li&gt;&lt;li style=&quot;box-sizing: border-box; margin-left: 0px; margin-bottom: 1rem; display: flex;&quot; class=&quot;css-1wjlep9&quot;&gt;&lt;span style=&quot;box-sizing: border-box; display: inline-block; font-family: NextIcon; -webkit-font-smoothing: antialiased; color: lightgrey;&quot; class=&quot;next-icon next-icon-success-filling next-xs&quot;&gt;&lt;/span&gt;&lt;span style=&quot;box-sizing: border-box; margin-left: 0.5rem;&quot;&gt;&lt;span style=&quot;box-sizing: border-box;&quot; class=&quot;coderoad-markdown&quot;&gt;&lt;p style=&quot;box-sizing: border-box; line-height: 20px; margin: 0px 0px 0.5rem;&quot;&gt;You should use the&amp;nbsp;&lt;code style=&quot;box-sizing: border-box; font-family: source-code-pro, Menlo, Monaco, Consolas, &amp;quot;Courier New&amp;quot;, monospace; color: rgb(0, 0, 0); background-color: rgba(27, 31, 35, 0.05); padding: 0.15rem 0.3rem; border-radius: 0.3rem; font-size: 9.6px; margin: 0px 2px; text-wrap-mode: nowrap; border: 1px solid rgb(234, 234, 234);&quot;&gt;NUMERIC&lt;/code&gt;&amp;nbsp;data type at least once&lt;/p&gt;&lt;/span&gt;&lt;/span&gt;&lt;/li&gt;&lt;li style=&quot;box-sizing: border-box; margin-left: 0px; margin-bottom: 1rem; display: flex;&quot; class=&quot;css-1wjlep9&quot;&gt;&lt;span style=&quot;box-sizing: border-box; display: inline-block; font-family: NextIcon; -webkit-font-smoothing: antialiased; color: lightgrey;&quot; class=&quot;next-icon next-icon-success-filling next-xs&quot;&gt;&lt;/span&gt;&lt;span style=&quot;box-sizing: border-box; margin-left: 0.5rem;&quot;&gt;&lt;span style=&quot;box-sizing: border-box;&quot; class=&quot;coderoad-markdown&quot;&gt;&lt;p style=&quot;box-sizing: border-box; line-height: 20px; margin: 0px 0px 0.5rem;&quot;&gt;You should use the&amp;nbsp;&lt;code style=&quot;box-sizing: border-box; font-family: source-code-pro, Menlo, Monaco, Consolas, &amp;quot;Courier New&amp;quot;, monospace; color: rgb(0, 0, 0); background-color: rgba(27, 31, 35, 0.05); padding: 0.15rem 0.3rem; border-radius: 0.3rem; font-size: 9.6px; margin: 0px 2px; text-wrap-mode: nowrap; border: 1px solid rgb(234, 234, 234);&quot;&gt;TEXT&lt;/code&gt;&amp;nbsp;data type at least once&lt;/p&gt;&lt;/span&gt;&lt;/span&gt;&lt;/li&gt;&lt;li style=&quot;box-sizing: border-box; margin-left: 0px; margin-bottom: 1rem; display: flex;&quot; class=&quot;css-1wjlep9&quot;&gt;&lt;span style=&quot;box-sizing: border-box; display: inline-block; font-family: NextIcon; -webkit-font-smoothing: antialiased; color: lightgrey;&quot; class=&quot;next-icon next-icon-success-filling next-xs&quot;&gt;&lt;/span&gt;&lt;span style=&quot;box-sizing: border-box; margin-left: 0.5rem;&quot;&gt;&lt;span style=&quot;box-sizing: border-box;&quot; class=&quot;coderoad-markdown&quot;&gt;&lt;p style=&quot;box-sizing: border-box; line-height: 20px; margin: 0px 0px 0.5rem;&quot;&gt;You should use the&amp;nbsp;&lt;code style=&quot;box-sizing: border-box; font-family: source-code-pro, Menlo, Monaco, Consolas, &amp;quot;Courier New&amp;quot;, monospace; color: rgb(0, 0, 0); background-color: rgba(27, 31, 35, 0.05); padding: 0.15rem 0.3rem; border-radius: 0.3rem; font-size: 9.6px; margin: 0px 2px; text-wrap-mode: nowrap; border: 1px solid rgb(234, 234, 234);&quot;&gt;BOOLEAN&lt;/code&gt;&amp;nbsp;data type on at least two columns&lt;/p&gt;&lt;/span&gt;&lt;/span&gt;&lt;/li&gt;&lt;li style=&quot;box-sizing: border-box; margin-left: 0px; margin-bottom: 1rem; display: flex;&quot; class=&quot;css-1wjlep9&quot;&gt;&lt;span style=&quot;box-sizing: border-box; display: inline-block; font-family: NextIcon; -webkit-font-smoothing: antialiased; color: lightgrey;&quot; class=&quot;next-icon next-icon-success-filling next-xs&quot;&gt;&lt;/span&gt;&lt;span style=&quot;box-sizing: border-box; margin-left: 0.5rem;&quot;&gt;&lt;span style=&quot;box-sizing: border-box;&quot; class=&quot;coderoad-markdown&quot;&gt;&lt;p style=&quot;box-sizing: border-box; line-height: 20px; margin: 0px 0px 0.5rem;&quot;&gt;Each &quot;star&quot; should have a foreign key that references one of the rows in&amp;nbsp;&lt;code style=&quot;box-sizing: border-box; font-family: source-code-pro, Menlo, Monaco, Consolas, &amp;quot;Courier New&amp;quot;, monospace; color: rgb(0, 0, 0); background-color: rgba(27, 31, 35, 0.05); padding: 0.15rem 0.3rem; border-radius: 0.3rem; font-size: 9.6px; margin: 0px 2px; text-wrap-mode: nowrap; border: 1px solid rgb(234, 234, 234);&quot;&gt;galaxy&lt;/code&gt;&lt;/p&gt;&lt;/span&gt;&lt;/span&gt;&lt;/li&gt;&lt;li style=&quot;box-sizing: border-box; margin-left: 0px; margin-bottom: 1rem; display: flex;&quot; class=&quot;css-1wjlep9&quot;&gt;&lt;span style=&quot;box-sizing: border-box; display: inline-block; font-family: NextIcon; -webkit-font-smoothing: antialiased; color: lightgrey;&quot; class=&quot;next-icon next-icon-success-filling next-xs&quot;&gt;&lt;/span&gt;&lt;span style=&quot;box-sizing: border-box; margin-left: 0.5rem;&quot;&gt;&lt;span style=&quot;box-sizing: border-box;&quot; class=&quot;coderoad-markdown&quot;&gt;&lt;p style=&quot;box-sizing: border-box; line-height: 20px; margin: 0px 0px 0.5rem;&quot;&gt;Each &quot;planet&quot; should have a foreign key that references one of the rows in&amp;nbsp;&lt;code style=&quot;box-sizing: border-box; font-family: source-code-pro, Menlo, Monaco, Consolas, &amp;quot;Courier New&amp;quot;, monospace; color: rgb(0, 0, 0); background-color: rgba(27, 31, 35, 0.05); padding: 0.15rem 0.3rem; border-radius: 0.3rem; font-size: 9.6px; margin: 0px 2px; text-wrap-mode: nowrap; border: 1px solid rgb(234, 234, 234);&quot;&gt;star&lt;/code&gt;&lt;/p&gt;&lt;/span&gt;&lt;/span&gt;&lt;/li&gt;&lt;li style=&quot;box-sizing: border-box; margin-left: 0px; margin-bottom: 1rem; display: flex;&quot; class=&quot;css-1wjlep9&quot;&gt;&lt;span style=&quot;box-sizing: border-box; display: inline-block; font-family: NextIcon; -webkit-font-smoothing: antialiased; color: lightgrey;&quot; class=&quot;next-icon next-icon-success-filling next-xs&quot;&gt;&lt;/span&gt;&lt;span style=&quot;box-sizing: border-box; margin-left: 0.5rem;&quot;&gt;&lt;span style=&quot;box-sizing: border-box;&quot; class=&quot;coderoad-markdown&quot;&gt;&lt;p style=&quot;box-sizing: border-box; line-height: 20px; margin: 0px 0px 0.5rem;&quot;&gt;Each &quot;moon&quot; should have a foreign key that references one of the rows in&amp;nbsp;&lt;code style=&quot;box-sizing: border-box; font-family: source-code-pro, Menlo, Monaco, Consolas, &amp;quot;Courier New&amp;quot;, monospace; color: rgb(0, 0, 0); background-color: rgba(27, 31, 35, 0.05); padding: 0.15rem 0.3rem; border-radius: 0.3rem; font-size: 9.6px; margin: 0px 2px; text-wrap-mode: nowrap; border: 1px solid rgb(234, 234, 234);&quot;&gt;planet&lt;/code&gt;&lt;/p&gt;&lt;/span&gt;&lt;/span&gt;&lt;/li&gt;&lt;li style=&quot;box-sizing: border-box; margin-left: 0px; margin-bottom: 1rem; display: flex;&quot; class=&quot;css-1wjlep9&quot;&gt;&lt;span style=&quot;box-sizing: border-box; display: inline-block; font-family: NextIcon; -webkit-font-smoothing: antialiased; color: lightgrey;&quot; class=&quot;next-icon next-icon-success-filling next-xs&quot;&gt;&lt;/span&gt;&lt;span style=&quot;box-sizing: border-box; margin-left: 0.5rem;&quot;&gt;&lt;span style=&quot;box-sizing: border-box;&quot; class=&quot;coderoad-markdown&quot;&gt;&lt;p style=&quot;box-sizing: border-box; line-height: 20px; margin: 0px 0px 0.5rem;&quot;&gt;Your database should have at least five tables&lt;/p&gt;&lt;/span&gt;&lt;/span&gt;&lt;/li&gt;&lt;li style=&quot;box-sizing: border-box; margin-left: 0px; margin-bottom: 1rem; display: flex;&quot; class=&quot;css-1wjlep9&quot;&gt;&lt;span style=&quot;box-sizing: border-box; display: inline-block; font-family: NextIcon; -webkit-font-smoothing: antialiased; color: lightgrey;&quot; class=&quot;next-icon next-icon-success-filling next-xs&quot;&gt;&lt;/span&gt;&lt;span style=&quot;box-sizing: border-box; margin-left: 0.5rem;&quot;&gt;&lt;span style=&quot;box-sizing: border-box;&quot; class=&quot;coderoad-markdown&quot;&gt;&lt;p style=&quot;box-sizing: border-box; line-height: 20px; margin: 0px 0px 0.5rem;&quot;&gt;Each table should have at least three rows&lt;/p&gt;&lt;/span&gt;&lt;/span&gt;&lt;/li&gt;&lt;li style=&quot;box-sizing: border-box; margin-left: 0px; margin-bottom: 1rem; display: flex;&quot; class=&quot;css-1wjlep9&quot;&gt;&lt;span style=&quot;box-sizing: border-box; display: inline-block; font-family: NextIcon; -webkit-font-smoothing: antialiased; color: lightgrey;&quot; class=&quot;next-icon next-icon-success-filling next-xs&quot;&gt;&lt;/span&gt;&lt;span style=&quot;box-sizing: border-box; margin-left: 0.5rem;&quot;&gt;&lt;span style=&quot;box-sizing: border-box;&quot; class=&quot;coderoad-markdown&quot;&gt;&lt;p style=&quot;box-sizing: border-box; line-height: 20px; margin: 0px 0px 0.5rem;&quot;&gt;The&amp;nbsp;&lt;code style=&quot;box-sizing: border-box; font-family: source-code-pro, Menlo, Monaco, Consolas, &amp;quot;Courier New&amp;quot;, monospace; color: rgb(0, 0, 0); background-color: rgba(27, 31, 35, 0.05); padding: 0.15rem 0.3rem; border-radius: 0.3rem; font-size: 9.6px; margin: 0px 2px; text-wrap-mode: nowrap; border: 1px solid rgb(234, 234, 234);&quot;&gt;galaxy&lt;/code&gt;&amp;nbsp;and&amp;nbsp;&lt;code style=&quot;box-sizing: border-box; font-family: source-code-pro, Menlo, Monaco, Consolas, &amp;quot;Courier New&amp;quot;, monospace; color: rgb(0, 0, 0); background-color: rgba(27, 31, 35, 0.05); padding: 0.15rem 0.3rem; border-radius: 0.3rem; font-size: 9.6px; margin: 0px 2px; text-wrap-mode: nowrap; border: 1px solid rgb(234, 234, 234);&quot;&gt;star&lt;/code&gt;&amp;nbsp;tables should each have at least six rows&lt;/p&gt;&lt;/span&gt;&lt;/span&gt;&lt;/li&gt;&lt;li style=&quot;box-sizing: border-box; margin-left: 0px; margin-bottom: 1rem; display: flex;&quot; class=&quot;css-1wjlep9&quot;&gt;&lt;span style=&quot;box-sizing: border-box; display: inline-block; font-family: NextIcon; -webkit-font-smoothing: antialiased; color: lightgrey;&quot; class=&quot;next-icon next-icon-success-filling next-xs&quot;&gt;&lt;/span&gt;&lt;span style=&quot;box-sizing: border-box; margin-left: 0.5rem;&quot;&gt;&lt;span style=&quot;box-sizing: border-box;&quot; class=&quot;coderoad-markdown&quot;&gt;&lt;p style=&quot;box-sizing: border-box; line-height: 20px; margin: 0px 0px 0.5rem;&quot;&gt;The&amp;nbsp;&lt;code style=&quot;box-sizing: border-box; font-family: source-code-pro, Menlo, Monaco, Consolas, &amp;quot;Courier New&amp;quot;, monospace; color: rgb(0, 0, 0); background-color: rgba(27, 31, 35, 0.05); padding: 0.15rem 0.3rem; border-radius: 0.3rem; font-size: 9.6px; margin: 0px 2px; text-wrap-mode: nowrap; border: 1px solid rgb(234, 234, 234);&quot;&gt;planet&lt;/code&gt;&amp;nbsp;table should have at least 12 rows&lt;/p&gt;&lt;/span&gt;&lt;/span&gt;&lt;/li&gt;&lt;li style=&quot;box-sizing: border-box; margin-left: 0px; margin-bottom: 1rem; display: flex;&quot; class=&quot;css-1wjlep9&quot;&gt;&lt;span style=&quot;box-sizing: border-box; display: inline-block; font-family: NextIcon; -webkit-font-smoothing: antialiased; color: lightgrey;&quot; class=&quot;next-icon next-icon-success-filling next-xs&quot;&gt;&lt;/span&gt;&lt;span style=&quot;box-sizing: border-box; margin-left: 0.5rem;&quot;&gt;&lt;span style=&quot;box-sizing: border-box;&quot; class=&quot;coderoad-markdown&quot;&gt;&lt;p style=&quot;box-sizing: border-box; line-height: 20px; margin: 0px 0px 0.5rem;&quot;&gt;The&amp;nbsp;&lt;code style=&quot;box-sizing: border-box; font-family: source-code-pro, Menlo, Monaco, Consolas, &amp;quot;Courier New&amp;quot;, monospace; color: rgb(0, 0, 0); background-color: rgba(27, 31, 35, 0.05); padding: 0.15rem 0.3rem; border-radius: 0.3rem; font-size: 9.6px; margin: 0px 2px; text-wrap-mode: nowrap; border: 1px solid rgb(234, 234, 234);&quot;&gt;moon&lt;/code&gt;&amp;nbsp;table should have at least 20 rows&lt;/p&gt;&lt;/span&gt;&lt;/span&gt;&lt;/li&gt;&lt;li style=&quot;box-sizing: border-box; margin-left: 0px; margin-bottom: 1rem; display: flex;&quot; class=&quot;css-1wjlep9&quot;&gt;&lt;span style=&quot;box-sizing: border-box; display: inline-block; font-family: NextIcon; -webkit-font-smoothing: antialiased; color: lightgrey;&quot; class=&quot;next-icon next-icon-success-filling next-xs&quot;&gt;&lt;/span&gt;&lt;span style=&quot;box-sizing: border-box; margin-left: 0.5rem;&quot;&gt;&lt;span style=&quot;box-sizing: border-box;&quot; class=&quot;coderoad-markdown&quot;&gt;&lt;p style=&quot;box-sizing: border-box; line-height: 20px; margin: 0px 0px 0.5rem;&quot;&gt;Each table should have at least three columns&lt;/p&gt;&lt;/span&gt;&lt;/span&gt;&lt;/li&gt;&lt;li style=&quot;box-sizing: border-box; margin-left: 0px; margin-bottom: 1rem; display: flex;&quot; class=&quot;css-1wjlep9&quot;&gt;&lt;span style=&quot;box-sizing: border-box; display: inline-block; font-family: NextIcon; -webkit-font-smoothing: antialiased; color: lightgrey;&quot; class=&quot;next-icon next-icon-success-filling next-xs&quot;&gt;&lt;/span&gt;&lt;span style=&quot;box-sizing: border-box; margin-left: 0.5rem;&quot;&gt;&lt;span style=&quot;box-sizing: border-box;&quot; class=&quot;coderoad-markdown&quot;&gt;&lt;p style=&quot;box-sizing: border-box; line-height: 20px; margin: 0px 0px 0.5rem;&quot;&gt;The&amp;nbsp;&lt;code style=&quot;box-sizing: border-box; font-family: source-code-pro, Menlo, Monaco, Consolas, &amp;quot;Courier New&amp;quot;, monospace; color: rgb(0, 0, 0); background-color: rgba(27, 31, 35, 0.05); padding: 0.15rem 0.3rem; border-radius: 0.3rem; font-size: 9.6px; margin: 0px 2px; text-wrap-mode: nowrap; border: 1px solid rgb(234, 234, 234);&quot;&gt;galaxy&lt;/code&gt;,&amp;nbsp;&lt;code style=&quot;box-sizing: border-box; font-family: source-code-pro, Menlo, Monaco, Consolas, &amp;quot;Courier New&amp;quot;, monospace; color: rgb(0, 0, 0); background-color: rgba(27, 31, 35, 0.05); padding: 0.15rem 0.3rem; border-radius: 0.3rem; font-size: 9.6px; margin: 0px 2px; text-wrap-mode: nowrap; border: 1px solid rgb(234, 234, 234);&quot;&gt;star&lt;/code&gt;,&amp;nbsp;&lt;code style=&quot;box-sizing: border-box; font-family: source-code-pro, Menlo, Monaco, Consolas, &amp;quot;Courier New&amp;quot;, monospace; color: rgb(0, 0, 0); background-color: rgba(27, 31, 35, 0.05); padding: 0.15rem 0.3rem; border-radius: 0.3rem; font-size: 9.6px; margin: 0px 2px; text-wrap-mode: nowrap; border: 1px solid rgb(234, 234, 234);&quot;&gt;planet&lt;/code&gt;, and&amp;nbsp;&lt;code style=&quot;box-sizing: border-box; font-family: source-code-pro, Menlo, Monaco, Consolas, &amp;quot;Courier New&amp;quot;, monospace; color: rgb(0, 0, 0); background-color: rgba(27, 31, 35, 0.05); padding: 0.15rem 0.3rem; border-radius: 0.3rem; font-size: 9.6px; margin: 0px 2px; text-wrap-mode: nowrap; border: 1px solid rgb(234, 234, 234);&quot;&gt;moon&lt;/code&gt;&amp;nbsp;tables should each have at least five columns&lt;/p&gt;&lt;/span&gt;&lt;/span&gt;&lt;/li&gt;&lt;li style=&quot;box-sizing: border-box; margin-left: 0px; margin-bottom: 1rem; display: flex;&quot; class=&quot;css-1wjlep9&quot;&gt;&lt;span style=&quot;box-sizing: border-box; display: inline-block; font-family: NextIcon; -webkit-font-smoothing: antialiased; color: lightgrey;&quot; class=&quot;next-icon next-icon-success-filling next-xs&quot;&gt;&lt;/span&gt;&lt;span style=&quot;box-sizing: border-box; margin-left: 0.5rem;&quot;&gt;&lt;span style=&quot;box-sizing: border-box;&quot; class=&quot;coderoad-markdown&quot;&gt;&lt;p style=&quot;box-sizing: border-box; line-height: 20px; margin: 0px 0px 0.5rem;&quot;&gt;At least two columns per table should not accept&amp;nbsp;&lt;code style=&quot;box-sizing: border-box; font-family: source-code-pro, Menlo, Monaco, Consolas, &amp;quot;Courier New&amp;quot;, monospace; color: rgb(0, 0, 0); background-color: rgba(27, 31, 35, 0.05); padding: 0.15rem 0.3rem; border-radius: 0.3rem; font-size: 9.6px; margin: 0px 2px; text-wrap-mode: nowrap; border: 1px solid rgb(234, 234, 234);&quot;&gt;NULL&lt;/code&gt;&amp;nbsp;values&lt;/p&gt;&lt;/span&gt;&lt;/span&gt;&lt;/li&gt;&lt;li style=&quot;box-sizing: border-box; margin-left: 0px; margin-bottom: 1rem; display: flex;&quot; class=&quot;css-1wjlep9&quot;&gt;&lt;span style=&quot;box-sizing: border-box; display: inline-block; font-family: NextIcon; -webkit-font-smoothing: antialiased; color: lightgrey;&quot; class=&quot;next-icon next-icon-success-filling next-xs&quot;&gt;&lt;/span&gt;&lt;span style=&quot;box-sizing: border-box; margin-left: 0.5rem;&quot;&gt;&lt;span style=&quot;box-sizing: border-box;&quot; class=&quot;coderoad-markdown&quot;&gt;&lt;p style=&quot;box-sizing: border-box; line-height: 20px; margin: 0px 0px 0.5rem;&quot;&gt;At least one column from each table should be required to be&amp;nbsp;&lt;code style=&quot;box-sizing: border-box; font-family: source-code-pro, Menlo, Monaco, Consolas, &amp;quot;Courier New&amp;quot;, monospace; color: rgb(0, 0, 0); background-color: rgba(27, 31, 35, 0.05); padding: 0.15rem 0.3rem; border-radius: 0.3rem; font-size: 9.6px; margin: 0px 2px; text-wrap-mode: nowrap; border: 1px solid rgb(234, 234, 234);&quot;&gt;UNIQUE&lt;/code&gt;&lt;/p&gt;&lt;/span&gt;&lt;/span&gt;&lt;/li&gt;&lt;li style=&quot;box-sizing: border-box; margin-left: 0px; margin-bottom: 1rem; display: flex;&quot; class=&quot;css-1wjlep9&quot;&gt;&lt;span style=&quot;box-sizing: border-box; display: inline-block; font-family: NextIcon; -webkit-font-smoothing: antialiased; color: lightgrey;&quot; class=&quot;next-icon next-icon-success-filling next-xs&quot;&gt;&lt;/span&gt;&lt;span style=&quot;box-sizing: border-box; margin-left: 0.5rem;&quot;&gt;&lt;span style=&quot;box-sizing: border-box;&quot; class=&quot;coderoad-markdown&quot;&gt;&lt;p style=&quot;box-sizing: border-box; line-height: 20px; margin: 0px 0px 0.5rem;&quot;&gt;All columns named&amp;nbsp;&lt;code style=&quot;box-sizing: border-box; font-family: source-code-pro, Menlo, Monaco, Consolas, &amp;quot;Courier New&amp;quot;, monospace; color: rgb(0, 0, 0); background-color: rgba(27, 31, 35, 0.05); padding: 0.15rem 0.3rem; border-radius: 0.3rem; font-size: 9.6px; margin: 0px 2px; text-wrap-mode: nowrap; border: 1px solid rgb(234, 234, 234);&quot;&gt;name&lt;/code&gt;&amp;nbsp;should be of type&amp;nbsp;&lt;code style=&quot;box-sizing: border-box; font-family: source-code-pro, Menlo, Monaco, Consolas, &amp;quot;Courier New&amp;quot;, monospace; color: rgb(0, 0, 0); background-color: rgba(27, 31, 35, 0.05); padding: 0.15rem 0.3rem; border-radius: 0.3rem; font-size: 9.6px; margin: 0px 2px; text-wrap-mode: nowrap; border: 1px solid rgb(234, 234, 234);&quot;&gt;VARCHAR&lt;/code&gt;&lt;/p&gt;&lt;/span&gt;&lt;/span&gt;&lt;/li&gt;&lt;li style=&quot;box-sizing: border-box; margin-left: 0px; margin-bottom: 1rem; display: flex;&quot; class=&quot;css-1wjlep9&quot;&gt;&lt;span style=&quot;box-sizing: border-box; display: inline-block; font-family: NextIcon; -webkit-font-smoothing: antialiased; color: lightgrey;&quot; class=&quot;next-icon next-icon-success-filling next-xs&quot;&gt;&lt;/span&gt;&lt;span style=&quot;box-sizing: border-box; margin-left: 0.5rem;&quot;&gt;&lt;span style=&quot;box-sizing: border-box;&quot; class=&quot;coderoad-markdown&quot;&gt;&lt;p style=&quot;box-sizing: border-box; line-height: 20px; margin: 0px 0px 0.5rem;&quot;&gt;Each primary key column should follow the naming convention&amp;nbsp;&lt;code style=&quot;box-sizing: border-box; font-family: source-code-pro, Menlo, Monaco, Consolas, &amp;quot;Courier New&amp;quot;, monospace; color: rgb(0, 0, 0); background-color: rgba(27, 31, 35, 0.05); padding: 0.15rem 0.3rem; border-radius: 0.3rem; font-size: 9.6px; margin: 0px 2px; text-wrap-mode: nowrap; border: 1px solid rgb(234, 234, 234);&quot;&gt;table_name_id&lt;/code&gt;. For example, the&amp;nbsp;&lt;code style=&quot;box-sizing: border-box; font-family: source-code-pro, Menlo, Monaco, Consolas, &amp;quot;Courier New&amp;quot;, monospace; color: rgb(0, 0, 0); background-color: rgba(27, 31, 35, 0.05); padding: 0.15rem 0.3rem; border-radius: 0.3rem; font-size: 9.6px; margin: 0px 2px; text-wrap-mode: nowrap; border: 1px solid rgb(234, 234, 234);&quot;&gt;moon&lt;/code&gt;&amp;nbsp;table should have a primary key column named&amp;nbsp;&lt;code style=&quot;box-sizing: border-box; font-family: source-code-pro, Menlo, Monaco, Consolas, &amp;quot;Courier New&amp;quot;, monospace; color: rgb(0, 0, 0); background-color: rgba(27, 31, 35, 0.05); padding: 0.15rem 0.3rem; border-radius: 0.3rem; font-size: 9.6px; margin: 0px 2px; text-wrap-mode: nowrap; border: 1px solid rgb(234, 234, 234);&quot;&gt;moon_id&lt;/code&gt;&lt;/p&gt;&lt;/span&gt;&lt;/span&gt;&lt;/li&gt;&lt;li style=&quot;box-sizing: border-box; margin-left: 0px; margin-bottom: 1rem; display: flex;&quot; class=&quot;css-1wjlep9&quot;&gt;&lt;span style=&quot;box-sizing: border-box; display: inline-block; font-family: NextIcon; -webkit-font-smoothing: antialiased; color: lightgrey;&quot; class=&quot;next-icon next-icon-success-filling next-xs&quot;&gt;&lt;/span&gt;&lt;span style=&quot;box-sizing: border-box; margin-left: 0.5rem;&quot;&gt;&lt;span style=&quot;box-sizing: border-box;&quot; class=&quot;coderoad-markdown&quot;&gt;&lt;p style=&quot;box-sizing: border-box; line-height: 20px; margin: 0px 0px 0.5rem;&quot;&gt;Each foreign key column should have the same name as the column it is referencing&lt;/p&gt;&lt;/span&gt;&lt;/span&gt;&lt;/li&gt;&lt;/ul&gt;" style="whiteSpace=wrap;html=1;" vertex="1" parent="1">
          <mxGeometry x="850" y="-1100" width="879" height="1100" as="geometry" />
        </mxCell>
        <mxCell id="MN-LZ6k577d6LrovJlPE-16" value="&lt;font&gt;&lt;code style=&quot;font-family: Helvetica; box-sizing: border-box; background-color: rgba(27, 31, 35, 0.05); padding: 0.15rem 0.3rem; border-radius: 0.3rem; margin: 0px 2px; border: 1px solid rgb(234, 234, 234); text-align: start;&quot;&gt;description&lt;/code&gt;&lt;span style=&quot;font-family: Helvetica; color: rgb(51, 51, 51); text-align: start; text-wrap-mode: wrap; background-color: rgb(255, 255, 255);&quot;&gt;,&amp;nbsp;&lt;/span&gt;&lt;code style=&quot;font-family: Helvetica; box-sizing: border-box; background-color: rgba(27, 31, 35, 0.05); padding: 0.15rem 0.3rem; border-radius: 0.3rem; margin: 0px 2px; border: 1px solid rgb(234, 234, 234); text-align: start;&quot;&gt;has_life&lt;/code&gt;&lt;span style=&quot;font-family: Helvetica; color: rgb(51, 51, 51); text-align: start; text-wrap-mode: wrap; background-color: rgb(255, 255, 255);&quot;&gt;,&amp;nbsp;&lt;/span&gt;&lt;code style=&quot;font-family: Helvetica; box-sizing: border-box; background-color: rgba(27, 31, 35, 0.05); padding: 0.15rem 0.3rem; border-radius: 0.3rem; margin: 0px 2px; border: 1px solid rgb(234, 234, 234); text-align: start;&quot;&gt;is_spherical&lt;/code&gt;&lt;span style=&quot;font-family: Helvetica; color: rgb(51, 51, 51); text-align: start; text-wrap-mode: wrap; background-color: rgb(255, 255, 255);&quot;&gt;,&amp;nbsp;&lt;/span&gt;&lt;code style=&quot;box-sizing: border-box; background-color: rgba(27, 31, 35, 0.05); padding: 0.15rem 0.3rem; border-radius: 0.3rem; margin: 0px 2px; border: 1px solid rgb(234, 234, 234); text-align: start;&quot;&gt;&lt;font face=&quot;Helvetica&quot;&gt;age_in_millions_of_years&lt;/font&gt;&lt;/code&gt;&lt;span style=&quot;font-family: Helvetica; color: rgb(51, 51, 51); text-align: start; text-wrap-mode: wrap; background-color: rgb(255, 255, 255);&quot;&gt;,&amp;nbsp;&lt;/span&gt;&lt;code style=&quot;font-family: Helvetica; box-sizing: border-box; background-color: rgba(27, 31, 35, 0.05); padding: 0.15rem 0.3rem; border-radius: 0.3rem; margin: 0px 2px; border: 1px solid rgb(234, 234, 234); text-align: start;&quot;&gt;planet_types&lt;/code&gt;&lt;span style=&quot;font-family: Helvetica; color: rgb(51, 51, 51); text-align: start; text-wrap-mode: wrap; background-color: rgb(255, 255, 255);&quot;&gt;,&amp;nbsp;&lt;/span&gt;&lt;code style=&quot;font-family: Helvetica; box-sizing: border-box; background-color: rgba(27, 31, 35, 0.05); padding: 0.15rem 0.3rem; border-radius: 0.3rem; margin: 0px 2px; border: 1px solid rgb(234, 234, 234); text-align: start;&quot;&gt;galaxy_types&lt;/code&gt;&lt;span style=&quot;font-family: Helvetica; color: rgb(51, 51, 51); text-align: start; text-wrap-mode: wrap; background-color: rgb(255, 255, 255);&quot;&gt;,&amp;nbsp;&lt;/span&gt;&lt;code style=&quot;font-family: Helvetica; box-sizing: border-box; background-color: rgba(27, 31, 35, 0.05); padding: 0.15rem 0.3rem; border-radius: 0.3rem; margin: 0px 2px; border: 1px solid rgb(234, 234, 234); text-align: start;&quot;&gt;distance_from_earth&lt;/code&gt;&lt;/font&gt;" style="text;html=1;align=center;verticalAlign=middle;resizable=0;points=[];autosize=1;strokeColor=none;fillColor=none;" vertex="1" parent="1">
          <mxGeometry x="137" y="-43" width="713" height="26" as="geometry" />
        </mxCell>
        <mxCell id="MN-LZ6k577d6LrovJlPE-116" style="edgeStyle=orthogonalEdgeStyle;rounded=0;orthogonalLoop=1;jettySize=auto;html=1;exitX=0;exitY=0.5;exitDx=0;exitDy=0;entryX=1;entryY=0.5;entryDx=0;entryDy=0;" edge="1" parent="1" source="MN-LZ6k577d6LrovJlPE-113" target="Tk1LQlAnh9t9eojkvbLp-2">
          <mxGeometry relative="1" as="geometry" />
        </mxCell>
        <mxCell id="MN-LZ6k577d6LrovJlPE-173" style="edgeStyle=orthogonalEdgeStyle;rounded=0;orthogonalLoop=1;jettySize=auto;html=1;exitX=0;exitY=0.5;exitDx=0;exitDy=0;entryX=1;entryY=0.5;entryDx=0;entryDy=0;" edge="1" parent="1" source="MN-LZ6k577d6LrovJlPE-169" target="Tk1LQlAnh9t9eojkvbLp-56">
          <mxGeometry relative="1" as="geometry">
            <Array as="points">
              <mxPoint x="231" y="-285" />
              <mxPoint x="231" y="-632" />
              <mxPoint x="738" y="-632" />
              <mxPoint x="738" y="-1042" />
            </Array>
          </mxGeometry>
        </mxCell>
        <mxCell id="MN-LZ6k577d6LrovJlPE-177" style="edgeStyle=orthogonalEdgeStyle;rounded=0;orthogonalLoop=1;jettySize=auto;html=1;exitX=0;exitY=0.5;exitDx=0;exitDy=0;entryX=1;entryY=0.5;entryDx=0;entryDy=0;" edge="1" parent="1" source="MN-LZ6k577d6LrovJlPE-174" target="Tk1LQlAnh9t9eojkvbLp-82">
          <mxGeometry relative="1" as="geometry" />
        </mxCell>
        <mxCell id="MN-LZ6k577d6LrovJlPE-190" value="solar_system" style="shape=table;startSize=30;container=1;collapsible=1;childLayout=tableLayout;fixedRows=1;rowLines=0;fontStyle=1;align=center;resizeLast=1;html=1;" vertex="1" parent="1">
          <mxGeometry x="335" y="-198" width="216" height="150" as="geometry" />
        </mxCell>
        <mxCell id="MN-LZ6k577d6LrovJlPE-191" value="" style="shape=tableRow;horizontal=0;startSize=0;swimlaneHead=0;swimlaneBody=0;fillColor=none;collapsible=0;dropTarget=0;points=[[0,0.5],[1,0.5]];portConstraint=eastwest;top=0;left=0;right=0;bottom=1;" vertex="1" parent="MN-LZ6k577d6LrovJlPE-190">
          <mxGeometry y="30" width="216" height="30" as="geometry" />
        </mxCell>
        <mxCell id="MN-LZ6k577d6LrovJlPE-192" value="PK" style="shape=partialRectangle;connectable=0;fillColor=none;top=0;left=0;bottom=0;right=0;fontStyle=1;overflow=hidden;whiteSpace=wrap;html=1;" vertex="1" parent="MN-LZ6k577d6LrovJlPE-191">
          <mxGeometry width="30" height="30" as="geometry">
            <mxRectangle width="30" height="30" as="alternateBounds" />
          </mxGeometry>
        </mxCell>
        <mxCell id="MN-LZ6k577d6LrovJlPE-193" value="&lt;span style=&quot;text-align: center; text-wrap-mode: nowrap;&quot;&gt;solar_system int SERIAL&lt;/span&gt;" style="shape=partialRectangle;connectable=0;fillColor=none;top=0;left=0;bottom=0;right=0;align=left;spacingLeft=6;fontStyle=5;overflow=hidden;whiteSpace=wrap;html=1;" vertex="1" parent="MN-LZ6k577d6LrovJlPE-191">
          <mxGeometry x="30" width="186" height="30" as="geometry">
            <mxRectangle width="186" height="30" as="alternateBounds" />
          </mxGeometry>
        </mxCell>
        <mxCell id="MN-LZ6k577d6LrovJlPE-194" value="" style="shape=tableRow;horizontal=0;startSize=0;swimlaneHead=0;swimlaneBody=0;fillColor=none;collapsible=0;dropTarget=0;points=[[0,0.5],[1,0.5]];portConstraint=eastwest;top=0;left=0;right=0;bottom=0;" vertex="1" parent="MN-LZ6k577d6LrovJlPE-190">
          <mxGeometry y="60" width="216" height="30" as="geometry" />
        </mxCell>
        <mxCell id="MN-LZ6k577d6LrovJlPE-195" value="" style="shape=partialRectangle;connectable=0;fillColor=none;top=0;left=0;bottom=0;right=0;editable=1;overflow=hidden;whiteSpace=wrap;html=1;" vertex="1" parent="MN-LZ6k577d6LrovJlPE-194">
          <mxGeometry width="30" height="30" as="geometry">
            <mxRectangle width="30" height="30" as="alternateBounds" />
          </mxGeometry>
        </mxCell>
        <mxCell id="MN-LZ6k577d6LrovJlPE-196" value="Row 1" style="shape=partialRectangle;connectable=0;fillColor=none;top=0;left=0;bottom=0;right=0;align=left;spacingLeft=6;overflow=hidden;whiteSpace=wrap;html=1;" vertex="1" parent="MN-LZ6k577d6LrovJlPE-194">
          <mxGeometry x="30" width="186" height="30" as="geometry">
            <mxRectangle width="186" height="30" as="alternateBounds" />
          </mxGeometry>
        </mxCell>
        <mxCell id="MN-LZ6k577d6LrovJlPE-197" value="" style="shape=tableRow;horizontal=0;startSize=0;swimlaneHead=0;swimlaneBody=0;fillColor=none;collapsible=0;dropTarget=0;points=[[0,0.5],[1,0.5]];portConstraint=eastwest;top=0;left=0;right=0;bottom=0;" vertex="1" parent="MN-LZ6k577d6LrovJlPE-190">
          <mxGeometry y="90" width="216" height="30" as="geometry" />
        </mxCell>
        <mxCell id="MN-LZ6k577d6LrovJlPE-198" value="" style="shape=partialRectangle;connectable=0;fillColor=none;top=0;left=0;bottom=0;right=0;editable=1;overflow=hidden;whiteSpace=wrap;html=1;" vertex="1" parent="MN-LZ6k577d6LrovJlPE-197">
          <mxGeometry width="30" height="30" as="geometry">
            <mxRectangle width="30" height="30" as="alternateBounds" />
          </mxGeometry>
        </mxCell>
        <mxCell id="MN-LZ6k577d6LrovJlPE-199" value="Row 2" style="shape=partialRectangle;connectable=0;fillColor=none;top=0;left=0;bottom=0;right=0;align=left;spacingLeft=6;overflow=hidden;whiteSpace=wrap;html=1;" vertex="1" parent="MN-LZ6k577d6LrovJlPE-197">
          <mxGeometry x="30" width="186" height="30" as="geometry">
            <mxRectangle width="186" height="30" as="alternateBounds" />
          </mxGeometry>
        </mxCell>
        <mxCell id="MN-LZ6k577d6LrovJlPE-200" value="" style="shape=tableRow;horizontal=0;startSize=0;swimlaneHead=0;swimlaneBody=0;fillColor=none;collapsible=0;dropTarget=0;points=[[0,0.5],[1,0.5]];portConstraint=eastwest;top=0;left=0;right=0;bottom=0;" vertex="1" parent="MN-LZ6k577d6LrovJlPE-190">
          <mxGeometry y="120" width="216" height="30" as="geometry" />
        </mxCell>
        <mxCell id="MN-LZ6k577d6LrovJlPE-201" value="" style="shape=partialRectangle;connectable=0;fillColor=none;top=0;left=0;bottom=0;right=0;editable=1;overflow=hidden;whiteSpace=wrap;html=1;" vertex="1" parent="MN-LZ6k577d6LrovJlPE-200">
          <mxGeometry width="30" height="30" as="geometry">
            <mxRectangle width="30" height="30" as="alternateBounds" />
          </mxGeometry>
        </mxCell>
        <mxCell id="MN-LZ6k577d6LrovJlPE-202" value="Row 3" style="shape=partialRectangle;connectable=0;fillColor=none;top=0;left=0;bottom=0;right=0;align=left;spacingLeft=6;overflow=hidden;whiteSpace=wrap;html=1;" vertex="1" parent="MN-LZ6k577d6LrovJlPE-200">
          <mxGeometry x="30" width="186" height="30" as="geometry">
            <mxRectangle width="186" height="30" as="alternateBounds" />
          </mxGeometry>
        </mxCell>
      </root>
    </mxGraphModel>
  </diagram>
</mxfile>
